<?xml version="1.0" encoding="UTF-8"?>
<svg width="295px" height="93px" viewBox="0 0 295 93" version="1.1" xmlns="http://www.w3.org/2000/svg" xmlns:xlink="http://www.w3.org/1999/xlink">
    <!-- Generator: Sketch 63 (92445) - https://sketch.com -->
    <title>dokz_logo</title>
    <desc>Created with Sketch.</desc>
    <g id="Page-1" stroke="none" stroke-width="1" fill="none" fill-rule="evenodd">
        <g id="t" transform="translate(-207.000000, -225.000000)">
            <g id="dokz_logo" transform="translate(210.000000, 220.000000)">
                <g id="file-text" transform="translate(0.000000, 8.000000)" stroke="#2D3748" stroke-linecap="round" stroke-linejoin="round" stroke-width="6">
                    <path d="M43.75,0 L8.75,0 C3.91750844,0 0,3.89512268 0,8.7 L0,78.3 C0,83.1048773 3.91750844,87 8.75,87 L61.25,87 C66.0824916,87 70,83.1048773 70,78.3 L70,26.1 L43.75,0 Z" id="Path"></path>
                    <polyline id="Path" points="44 0 44 26 70 26"></polyline>
                    <line x1="53" y1="48.5" x2="17" y2="48.5" id="Path"></line>
                    <line x1="53" y1="65.5" x2="17" y2="65.5" id="Path"></line>
                    <polyline id="Path" points="26 30.5 21.5 30.5 17 30.5"></polyline>
                </g>
                <path d="M112.392578,95.9277344 C116.038411,95.9277344 119.342448,95.1057943 122.304688,93.4619141 C125.266927,91.8180339 127.578125,89.53125 129.238281,86.6015625 L129.238281,86.6015625 L130.019531,86.6015625 L130.019531,95 L138.027344,95 L138.027344,21.4648438 L129.628906,21.4648438 L129.628906,50.6640625 L128.896484,50.6640625 C127.399089,47.7994792 125.193685,45.5452474 122.280273,43.9013672 C119.366862,42.257487 116.070964,41.4355469 112.392578,41.4355469 C105.686849,41.4355469 100.323893,43.9176432 96.3037109,48.8818359 C92.2835286,53.8460286 90.2734375,60.4459635 90.2734375,68.6816406 C90.2734375,76.9498698 92.2753906,83.5579427 96.2792969,88.5058594 C100.283203,93.453776 105.654297,95.9277344 112.392578,95.9277344 Z M114.345703,88.359375 C109.527995,88.359375 105.760091,86.6178385 103.041992,83.1347656 C100.323893,79.6516927 98.9648438,74.8339844 98.9648438,68.6816406 C98.9648438,62.561849 100.332031,57.7522786 103.066406,54.2529297 C105.800781,50.7535807 109.560547,49.0039062 114.345703,49.0039062 C119.098307,49.0039062 122.866211,50.7779948 125.649414,54.3261719 C128.432617,57.874349 129.824219,62.6595052 129.824219,68.6816406 C129.824219,74.7688802 128.440755,79.5703125 125.673828,83.0859375 C122.906901,86.6015625 119.130859,88.359375 114.345703,88.359375 Z M170.710387,95.9277344 C178.197366,95.9277344 184.105569,93.5026042 188.434996,88.6523438 C192.796975,83.7695312 194.977965,77.1126302 194.977965,68.6816406 C194.977965,60.218099 192.813251,53.5611979 188.483824,48.7109375 C184.154397,43.8606771 178.229918,41.4355469 170.710387,41.4355469 C163.190856,41.4355469 157.266376,43.8606771 152.936949,48.7109375 C148.607522,53.5611979 146.442809,60.218099 146.442809,68.6816406 C146.442809,77.1126302 148.61566,83.7613932 152.961363,88.6279297 C157.307067,93.4944661 163.223408,95.9277344 170.710387,95.9277344 Z M170.710387,88.359375 C165.729918,88.359375 161.888772,86.6503906 159.186949,83.2324219 C156.485126,79.781901 155.134215,74.9316406 155.134215,68.6816406 C155.134215,62.4316406 156.485126,57.5895182 159.186949,54.1552734 C161.888772,50.7210286 165.729918,49.0039062 170.710387,49.0039062 C175.690856,49.0039062 179.532001,50.7210286 182.233824,54.1552734 C184.935647,57.5895182 186.286559,62.4316406 186.286559,68.6816406 C186.286559,74.9316406 184.935647,79.773763 182.233824,83.2080078 C179.532001,86.6422526 175.690856,88.359375 170.710387,88.359375 Z M211.791867,95 L211.791867,75.0292969 L216.821164,70.3417969 L236.547727,95 L247.241086,95 L223.071164,64.921875 L245.727414,42.3632812 L235.42468,42.3632812 L212.573117,65.3613281 L211.791867,65.3613281 L211.791867,21.4648438 L203.39343,21.4648438 L203.39343,95 L211.791867,95 Z M291.252254,95 L291.252254,87.96875 L260.881161,87.96875 L260.881161,87.1875 L291.10577,48.6621094 L291.10577,42.3632812 L250.773739,42.3632812 L250.773739,49.3945312 L281.096004,49.3945312 L281.096004,50.1757812 L250.724911,88.8476562 L250.724911,95 L291.252254,95 Z" id="dokz" fill="#2D3748" fill-rule="nonzero"></path>
            </g>
        </g>
    </g>
</svg>