<?xml version="1.0" encoding="UTF-8"?>
<svg width="296px" height="97px" viewBox="0 0 296 97" version="1.1" xmlns="http://www.w3.org/2000/svg" xmlns:xlink="http://www.w3.org/1999/xlink">
    <!-- Generator: Sketch 63 (92445) - https://sketch.com -->
    <title>dokz_logo</title>
    <desc>Created with Sketch.</desc>
    <g id="Page-1" stroke="none" stroke-width="1" fill="none" fill-rule="evenodd">
        <g id="t" transform="translate(-258.000000, -179.000000)" fill-rule="nonzero">
            <g id="dokz_logo" transform="translate(258.000000, 179.000000)">
                <path d="M111.050781,95.8789062 C114.696615,95.8789062 117.992513,95.0569661 120.938477,93.4130859 C123.88444,91.7692057 126.154948,89.4986979 127.75,86.6015625 L127.75,86.6015625 L128.580078,86.6015625 L128.580078,95 L138.638672,95 L138.638672,21.0742188 L128.140625,21.0742188 L128.140625,50.2734375 L127.359375,50.2734375 C125.927083,47.34375 123.76237,45.0569661 120.865234,43.4130859 C117.968099,41.7692057 114.696615,40.9472656 111.050781,40.9472656 C104.3125,40.9472656 98.9495443,43.421224 94.9619141,48.3691406 C90.9742839,53.3170573 88.9804688,59.9902344 88.9804688,68.3886719 C88.9804688,76.8196615 90.9661458,83.5091146 94.9375,88.4570312 C98.9088542,93.4049479 104.279948,95.8789062 111.050781,95.8789062 Z M114.029297,86.4550781 C109.602214,86.4550781 106.127279,84.851888 103.604492,81.6455078 C101.081706,78.4391276 99.8203125,74.0201823 99.8203125,68.3886719 C99.8203125,62.7897135 101.081706,58.3870443 103.604492,55.1806641 C106.127279,51.9742839 109.602214,50.3710938 114.029297,50.3710938 C118.423828,50.3710938 121.906901,51.9986979 124.478516,55.2539062 C127.05013,58.5091146 128.335938,62.9036458 128.335938,68.4375 C128.335938,74.0039062 127.058268,78.3984375 124.50293,81.6210938 C121.947591,84.84375 118.45638,86.4550781 114.029297,86.4550781 Z M171.565856,96.0253906 C179.345804,96.0253906 185.465595,93.5677083 189.925231,88.6523438 C194.384866,83.7369792 196.614684,76.9824219 196.614684,68.3886719 C196.614684,59.827474 194.376728,53.0891927 189.900817,48.1738281 C185.424905,43.2584635 179.313251,40.8007812 171.565856,40.8007812 C163.785908,40.8007812 157.657978,43.2584635 153.182067,48.1738281 C148.706155,53.0891927 146.468199,59.827474 146.468199,68.3886719 C146.468199,76.9824219 148.698017,83.7369792 153.157652,88.6523438 C157.617288,93.5677083 163.753356,96.0253906 171.565856,96.0253906 Z M171.565856,86.6992188 C167.008564,86.6992188 163.492939,85.1041667 161.018981,81.9140625 C158.545022,78.7239583 157.308043,74.2154948 157.308043,68.3886719 C157.308043,62.594401 158.545022,58.1022135 161.018981,54.9121094 C163.492939,51.7220052 167.008564,50.1269531 171.565856,50.1269531 C176.090595,50.1269531 179.598082,51.7301432 182.088317,54.9365234 C184.578551,58.1429036 185.823668,62.6269531 185.823668,68.3886719 C185.823668,74.1829427 184.578551,78.6832682 182.088317,81.8896484 C179.598082,85.0960286 176.090595,86.6992188 171.565856,86.6992188 Z M214.942258,95 L214.942258,75.9570312 L219.58093,71.5625 L237.842649,95 L250.733274,95 L227.39343,64.6289062 L249.26843,41.8261719 L236.866086,41.8261719 L215.772336,63.9941406 L214.942258,63.9941406 L214.942258,21.0742188 L204.444211,21.0742188 L204.444211,95 L214.942258,95 Z M295.965145,95 L295.965145,86.1132812 L267.058895,86.1132812 L267.058895,85.2832031 L295.672176,49.4921875 L295.672176,41.8261719 L254.070614,41.8261719 L254.070614,50.7128906 L283.123348,50.7128906 L283.123348,51.5429688 L253.875301,87.8710938 L253.875301,95 L295.965145,95 Z" id="dokz" fill="#2E2E2E"></path>
                <g id="file-invoice">
                    <path d="M17.7500208,59.374993 L53.2500069,59.374993 L53.2500069,47.5 L17.7500208,47.5 L17.7500208,59.374993 Z M71,23.7500139 L50.2916748,23.7500139 C48.657833,23.7500139 47.3333426,22.4208601 47.3333426,20.7812657 L47.3333426,1.38737252e-05 L4.43752605,1.38737252e-05 C3.26356946,-0.00292842713 2.1365252,0.462232694 1.30433205,1.29318033 C0.472138895,2.12412796 0.00296634171,3.25279463 1.38250482e-05,4.43088465 L1.38250482e-05,90.5468497 C-0.00291815252,91.7249397 0.460610915,92.8559522 1.2886431,93.6910755 C2.11667529,94.5261987 3.24138195,94.9970232 4.41533855,94.9999861 L66.5625017,94.9999861 C67.7364583,95.0029284 68.8635026,94.5377673 69.6956957,93.7068197 C70.5278889,92.875872 70.9970614,91.7472054 71,90.5691153 L71,23.7500139 Z M11.8333565,13.359395 C11.8333565,12.5395978 12.4956017,11.8750209 13.3125226,11.8750209 L28.1041835,11.8750209 C28.9211043,11.8750209 29.5833495,12.5395978 29.5833495,13.359395 L29.5833495,16.3281433 C29.5833495,17.1479405 28.9211043,17.8125174 28.1041835,17.8125174 L13.3125226,17.8125174 C12.4956017,17.8125174 11.8333565,17.1479405 11.8333565,16.3281433 L11.8333565,13.359395 Z M11.8333565,25.2343881 C11.8333565,24.4145909 12.4956017,23.7500139 13.3125226,23.7500139 L28.1041835,23.7500139 C28.9211043,23.7500139 29.5833495,24.4145909 29.5833495,25.2343881 L29.5833495,28.2031363 C29.5833495,29.0229335 28.9211043,29.6875105 28.1041835,29.6875105 L13.3125226,29.6875105 C12.4956017,29.6875105 11.8333565,29.0229335 11.8333565,28.2031363 L11.8333565,25.2343881 Z M59.1666713,81.640605 C59.1666713,82.4604022 58.5044261,83.1249791 57.6875052,83.1249791 L42.8958443,83.1249791 C42.0789235,83.1249791 41.4166782,82.4604022 41.4166782,81.640605 L41.4166782,78.6718567 C41.4166782,77.8520595 42.0789235,77.1874826 42.8958443,77.1874826 L57.6875052,77.1874826 C58.5044261,77.1874826 59.1666713,77.8520595 59.1666713,78.6718567 L59.1666713,81.640605 Z M59.1666713,62.3437413 C59.1666713,63.9833357 57.8421809,65.3124895 56.2083391,65.3124895 L14.7916887,65.3124895 C13.1578469,65.3124895 11.8333565,63.9833357 11.8333565,62.3437413 L11.8333565,44.5312517 C11.8333565,42.8916574 13.1578469,41.5625035 14.7916887,41.5625035 L56.2083391,41.5625035 C57.8421809,41.5625035 59.1666713,42.8916574 59.1666713,44.5312517 L59.1666713,62.3437413 Z" id="Shape" fill="#1D3656" opacity="0.4"></path>
                    <path d="M69.709375,19.4531454 L51.6590625,1.29690124 C50.8269957,0.463696274 49.6993716,-0.00286788613 48.5246875,1.32649508e-05 L47.4,1.32649508e-05 L47.4,20.75002 C47.4,22.3871493 48.72076,23.7143048 50.35,23.7143048 L71,23.7143048 L71,22.5841712 C71,21.4098134 70.5357625,20.283549 69.709375,19.4531454 L69.709375,19.4531454 Z M56.25,41.5000133 L14.95,41.5000133 C13.32076,41.5000133 12,42.8271688 12,44.4642981 L12,62.2500067 C12,63.8871359 13.32076,65.2142914 14.95,65.2142914 L56.25,65.2142914 C57.87924,65.2142914 59.2,63.8871359 59.2,62.2500067 L59.2,44.4642981 C59.2,42.8271688 57.87924,41.5000133 56.25,41.5000133 Z M53.3,59.2857219 L17.9,59.2857219 L17.9,47.4285829 L53.3,47.4285829 L53.3,59.2857219 Z M57.725,77.0714305 L42.975,77.0714305 C42.16038,77.0714305 41.5,77.7350082 41.5,78.5535729 L41.5,81.5178576 C41.5,82.3364223 42.16038,83 42.975,83 L57.725,83 C58.53962,83 59.2,82.3364223 59.2,81.5178576 L59.2,78.5535729 C59.2,77.7350082 58.53962,77.0714305 57.725,77.0714305 Z" id="Shape" fill="#000000"></path>
                </g>
            </g>
        </g>
    </g>
</svg>