<?xml version="1.0" encoding="UTF-8"?>
<svg width="358px" height="103px" viewBox="0 0 358 103" version="1.1" xmlns="http://www.w3.org/2000/svg" xmlns:xlink="http://www.w3.org/1999/xlink">
    <!-- Generator: Sketch 63 (92445) - https://sketch.com -->
    <title>dokz_logo_white</title>
    <desc>Created with Sketch.</desc>
    <g id="Page-1" stroke="none" stroke-width="1" fill="none" fill-rule="evenodd">
        <g id="t" transform="translate(-356.000000, -68.000000)">
            <g id="dokz_logo_white" transform="translate(360.000000, 72.000000)">
                <g id="file-text" stroke="#FFFFFF" stroke-linecap="round" stroke-linejoin="round" stroke-width="8">
                    <path d="M47.5,0 L9.5,0 C4.25329488,0 0,4.25329488 0,9.5 L0,85.5 C0,90.7467051 4.25329488,95 9.5,95 L66.5,95 C71.7467051,95 76,90.7467051 76,85.5 L76,28.5 L47.5,0 Z" id="Path"></path>
                    <polyline id="Path" points="47.7714286 0 47.7714286 28.3908046 76 28.3908046"></polyline>
                    <line x1="57.5428571" y1="52.9597701" x2="18.4571429" y2="52.9597701" id="Path"></line>
                    <line x1="57.5428571" y1="71.5229885" x2="18.4571429" y2="71.5229885" id="Path"></line>
                    <polyline id="Path" points="28.2285714 33.3045977 23.3428571 33.3045977 18.4571429 33.3045977"></polyline>
                </g>
                <path d="M126.460938,97.0546875 C130.835938,97.0546875 134.791016,96.0683594 138.326172,94.0957031 C141.861328,92.1230469 144.585938,89.3984375 146.5,85.921875 L146.5,85.921875 L147.496094,85.921875 L147.496094,96 L159.566406,96 L159.566406,7.2890625 L146.96875,7.2890625 L146.96875,42.328125 L146.03125,42.328125 C144.3125,38.8125 141.714844,36.0683594 138.238281,34.0957031 C134.761719,32.1230469 130.835938,31.1367188 126.460938,31.1367188 C118.375,31.1367188 111.939453,34.1054688 107.154297,40.0429688 C102.369141,45.9804688 99.9765625,53.9882812 99.9765625,64.0664062 C99.9765625,74.1835938 102.359375,82.2109375 107.125,88.1484375 C111.890625,94.0859375 118.335938,97.0546875 126.460938,97.0546875 Z M130.035156,85.7460938 C124.722656,85.7460938 120.552734,83.8222656 117.525391,79.9746094 C114.498047,76.1269531 112.984375,70.8242188 112.984375,64.0664062 C112.984375,57.3476562 114.498047,52.0644531 117.525391,48.2167969 C120.552734,44.3691406 124.722656,42.4453125 130.035156,42.4453125 C135.308594,42.4453125 139.488281,44.3984375 142.574219,48.3046875 C145.660156,52.2109375 147.203125,57.484375 147.203125,64.125 C147.203125,70.8046875 145.669922,76.078125 142.603516,79.9453125 C139.537109,83.8125 135.347656,85.7460938 130.035156,85.7460938 Z M200.779027,97.2304688 C210.114964,97.2304688 217.458714,94.28125 222.810277,88.3828125 C228.161839,82.484375 230.837621,74.3789062 230.837621,64.0664062 C230.837621,53.7929688 228.152074,45.7070312 222.78098,39.8085938 C217.409886,33.9101562 210.075902,30.9609375 200.779027,30.9609375 C191.443089,30.9609375 184.089574,33.9101562 178.71848,39.8085938 C173.347386,45.7070312 170.661839,53.7929688 170.661839,64.0664062 C170.661839,74.3789062 173.337621,82.484375 178.689183,88.3828125 C184.040746,94.28125 191.404027,97.2304688 200.779027,97.2304688 Z M200.779027,86.0390625 C195.310277,86.0390625 191.091527,84.125 188.122777,80.296875 C185.154027,76.46875 183.669652,71.0585938 183.669652,64.0664062 C183.669652,57.1132812 185.154027,51.7226562 188.122777,47.8945312 C191.091527,44.0664062 195.310277,42.1523438 200.779027,42.1523438 C206.208714,42.1523438 210.417699,44.0761719 213.40598,47.9238281 C216.394261,51.7714844 217.888402,57.1523438 217.888402,64.0664062 C217.888402,71.0195312 216.394261,76.4199219 213.40598,80.2675781 C210.417699,84.1152344 206.208714,86.0390625 200.779027,86.0390625 Z M254.53071,96 L254.53071,73.1484375 L260.097116,67.875 L282.011179,96 L297.479929,96 L269.472116,59.5546875 L295.722116,32.1914062 L280.839304,32.1914062 L255.526804,58.7929688 L254.53071,58.7929688 L254.53071,7.2890625 L241.933054,7.2890625 L241.933054,96 L254.53071,96 Z M353.458174,96 L353.458174,85.3359375 L318.770674,85.3359375 L318.770674,84.3398438 L353.106611,41.390625 L353.106611,32.1914062 L303.184736,32.1914062 L303.184736,42.8554688 L338.048018,42.8554688 L338.048018,43.8515625 L302.950361,87.4453125 L302.950361,96 L353.458174,96 Z" id="dokz" fill="#FFFFFF" fill-rule="nonzero"></path>
            </g>
        </g>
    </g>
</svg>