<?xml version="1.0" encoding="UTF-8"?>
<svg width="1786px" height="575px" viewBox="0 0 1786 575" version="1.1" xmlns="http://www.w3.org/2000/svg" xmlns:xlink="http://www.w3.org/1999/xlink">
    <!-- Generator: Sketch 63 (92445) - https://sketch.com -->
    <title>landing_illustration</title>
    <desc>Created with Sketch.</desc>
    <g id="Page-1" stroke="none" stroke-width="1" fill="none" fill-rule="evenodd">
        <g id="Artboard" transform="translate(-1466.000000, -939.000000)">
            <g id="landing_illustration" transform="translate(1466.000000, 897.000000)">
                <g id="Group-Copy">
                    <g id="paragraph-rtl" transform="translate(44.000000, 399.000000)" fill="#0567FF" fill-rule="nonzero">
                        <path d="M157.166535,166.905845 L47.8310899,166.905845 L47.8310899,143.062153 C47.8311411,141.246482 47.1041578,139.505912 45.8115284,138.226845 C44.518899,136.947778 42.7675849,136.236052 40.9463736,136.249478 C39.1469137,136.250906 37.423966,136.975423 36.1672188,138.259352 L1.9998923,172.321769 C-0.666630766,174.981848 -0.666630766,179.292839 1.9998923,181.952918 L36.1672188,216.015335 C37.4711707,217.30145 39.2360208,218.015645 41.0702302,217.99974 C44.4869628,217.99974 47.8310899,215.576782 47.8310899,211.186988 L47.8310899,187.343295 L157.166535,187.343295 C160.940553,187.343295 164,184.293243 164,180.530812 L164,173.718329 C164,169.955898 160.940553,166.905845 157.166535,166.905845 Z M61.4980205,95.3747686 L75.1649511,95.3747686 L75.1649511,129.437186 C75.1649511,133.199617 78.2243977,136.249669 81.9984164,136.249669 L88.8318817,136.249669 C92.6059004,136.249669 95.665347,133.199617 95.665347,129.437186 L95.665347,20.4374504 L109.332278,20.4374504 L109.332278,129.437186 C109.332278,133.199617 112.391724,136.249669 116.165743,136.249669 L122.999208,136.249669 C126.773227,136.249669 129.832673,133.199617 129.832673,129.437186 L129.832673,20.4374504 L143.499604,20.4374504 C147.273623,20.4374504 150.333069,17.3873977 150.333069,13.6249669 L150.333069,6.81248347 C150.333069,3.05005274 147.273623,0 143.499604,0 L61.4980205,0 C34.1641593,0 13.6637634,20.4374504 13.6637634,47.6873843 C13.6637634,74.9373182 34.1641593,95.3747686 61.4980205,95.3747686 Z M61.4980205,20.4374504 L75.1649511,20.4374504 L75.1649511,74.9373182 L61.4980205,74.9373182 C45.4052097,74.9373182 34.1641593,63.7307829 34.1641593,47.6873843 C34.1641593,31.6439857 45.4052097,20.4374504 61.4980205,20.4374504 Z" id="Shape"></path>
                    </g>
                    <g id="code" transform="translate(382.000000, 447.000000)" fill="#0260F4" fill-rule="nonzero">
                        <path d="M119.570342,5.18443843 C120.428673,5.43608412 121.153273,6.0258178 121.583899,6.82322228 C122.014524,7.62062675 122.115694,8.56000064 121.865036,9.43360524 L83.666773,143.524762 C83.4198039,144.398819 82.8415452,145.136723 82.0597167,145.575493 C81.2778881,146.014263 80.3568185,146.117798 79.4999442,145.86323 L62.4296581,140.815562 C61.5713266,140.563916 60.8467269,139.974182 60.4161015,139.176778 C59.985476,138.379373 59.8843057,137.439999 60.1349639,136.566395 L98.333227,2.47523811 C98.5801961,1.60118133 99.1584548,0.863277433 99.9402833,0.424507143 C100.722112,-0.0142631465 101.643182,-0.117797943 102.500056,0.13677047 L119.570342,5.18443843 Z" id="Path" opacity="0.4"></path>
                        <path d="M179.917623,70.5115327 L139.164914,31.9251923 C137.79338,30.6380369 135.65171,30.7016092 134.357503,32.0678932 L122.056186,45.3219587 C121.428803,45.9974309 121.099119,46.9004799 121.142273,47.8252952 C121.185427,48.7501105 121.59774,49.6178937 122.285245,50.2308718 L147.897436,73.0059455 L122.279589,95.752479 C121.586378,96.3619563 121.169906,97.2307484 121.126658,98.1575823 C121.083411,99.0844161 121.417139,99.9888639 122.05053,100.661392 L134.351847,113.904042 C134.965734,114.57209 135.818077,114.965729 136.720295,114.997867 C137.622513,115.030004 138.500232,114.69799 139.159259,114.075283 L179.911968,75.5174824 C180.604498,74.8732253 180.998922,73.9663187 180.999998,73.0157564 C181.00107,72.0651941 180.608696,71.1573821 179.917623,70.5115327 L179.917623,70.5115327 Z M58.9405302,45.3390828 L46.6392128,32.0964334 C46.0214747,31.4323211 45.1670462,31.0439296 44.2648808,31.0171502 C43.3627154,30.9903707 42.4871461,31.3274097 41.8318015,31.9537324 L1.07909245,70.4829925 C0.390990979,71.1277769 0,72.0326195 0,72.9802593 C0,73.9278991 0.390990979,74.8327417 1.07909245,75.4775262 L41.8318015,114.035326 C42.4842956,114.667428 43.3611092,115.008378 44.2651616,114.981542 C45.1692139,114.954707 46.0246568,114.562337 46.6392128,113.892625 L58.9405302,100.649976 C59.5679133,99.9745038 59.8975965,99.0714548 59.8544429,98.1466395 C59.8112893,97.2218243 59.3989758,96.354041 58.7114711,95.7410629 L33.0851406,73.0059455 L58.7058154,50.259412 C59.4033554,49.6504897 59.82322,48.7797128 59.8675705,47.8499933 C59.9119209,46.9202738 59.5768836,46.0128172 58.9405302,45.3390828 Z" id="Shape"></path>
                    </g>
                    <g id="file-text" transform="translate(173.000000, 82.000000)" stroke="#1069F6" stroke-linecap="round" stroke-linejoin="round" stroke-width="14">
                        <path d="M175,0 L35,0 C15.6700338,0 0,15.6700338 0,35 L0,315 C0,334.329966 15.6700338,350 35,350 L245,350 C264.329966,350 280,334.329966 280,315 L280,105 L175,0 Z" id="Path"></path>
                        <polyline id="Path" points="176.535797 0 176.535797 104.805915 280 104.805915"></polyline>
                        <line x1="212.101617" y1="195.055453" x2="68.5450346" y2="195.055453" id="Path"></line>
                        <line x1="212.101617" y1="263.632163" x2="68.5450346" y2="263.632163" id="Path"></line>
                        <polyline id="Path" points="103.464203 123.243993 85.6812933 123.243993 67.8983834 123.243993"></polyline>
                    </g>
                    <g id="code" transform="translate(0.000000, 42.000000)" fill="#0260F4" fill-rule="nonzero">
                        <path d="M55.0429688,119.927726 L45.9492188,117.279337 C44.9648438,116.998092 44.3789062,115.943424 44.6601562,114.959067 L77.6601562,1.35959282 C77.9414062,0.375235917 78.9960938,-0.210690813 79.9804688,0.0705540177 L89.0742188,2.71894284 C90.0585938,3.00018767 90.6445312,4.05485578 90.3632812,5.03921269 L57.3632812,118.638687 C57.0820312,119.646481 56.0507812,120.208971 55.0429688,119.927726 Z M35.5429688,91.5454351 L41.9179688,84.748685 C42.6445313,83.9752617 42.5742188,82.7565341 41.8007813,82.0534221 L16.9335938,59.9991399 L41.8007813,37.9448578 C42.5976563,37.2417458 42.6445313,36.0230182 41.9179688,35.2495949 L35.5429688,28.4528448 C34.8398438,27.7028586 33.6445313,27.6559845 32.8945313,28.3590965 L0.59765625,58.6397899 C-0.19921875,59.3897762 -0.19921875,60.6319408 0.59765625,61.381927 L32.8945313,91.6391834 C33.6445313,92.3422954 34.8164062,92.2954213 35.5429688,91.5454351 Z M102.128906,91.6391834 L134.402344,61.381927 C135.199219,60.6319408 135.199219,59.3897762 134.402344,58.6397899 L102.128906,28.3590965 C101.378906,27.6559845 100.183594,27.6794215 99.4804687,28.4528448 L93.1054688,35.2495949 C92.3789062,36.0230182 92.4492187,37.2417458 93.2226562,37.9448578 L118.089844,59.9991399 L93.2226562,82.0534221 C92.4257813,82.7565341 92.3789062,83.9752617 93.1054688,84.748685 L99.4804688,91.5454351 C100.207031,92.2954213 101.378906,92.3422954 102.128906,91.6391834 Z" id="Shape"></path>
                    </g>
                </g>
                <g id="Group-5" transform="translate(1004.000000, 93.000000)">
                    <g id="Group-3" transform="translate(141.000000, 38.000000)">
                        <g id="Group-2" transform="translate(52.000000, 69.000000)" fill="#4894FF">
                            <rect id="Rectangle" x="0" y="8.8817842e-16" width="271" height="16"></rect>
                            <rect id="Rectangle-Copy-9" x="0" y="29" width="271" height="16"></rect>
                            <rect id="Rectangle-Copy-5" x="0" y="101" width="162" height="15"></rect>
                            <rect id="Rectangle-Copy-6" x="0" y="133" width="162" height="15"></rect>
                            <rect id="Rectangle-Copy-7" x="0" y="165" width="110" height="16"></rect>
                            <rect id="Rectangle-Copy-8" x="0" y="198" width="162" height="15"></rect>
                        </g>
                        <rect id="Rectangle" stroke="#1069F6" stroke-width="11" stroke-linejoin="round" x="0" y="0" width="424" height="337" rx="11"></rect>
                        <g id="image" transform="translate(272.000000, 169.000000)" fill="#1069F6" fill-rule="nonzero" stroke="#979797">
                            <path d="M116,0 L12,0 C5.3725,0 0,5.3725 0,12 L0,84 C0,90.6275 5.3725,96 12,96 L116,96 C122.6275,96 128,90.6275 128,84 L128,12 C128,5.3725 122.6275,0 116,0 Z M120,84 C120,86.2055 118.2055,88 116,88 L12,88 C9.7945,88 8,86.2055 8,84 L8,12 C8,9.7945 9.7945,8 12,8 L116,8 C118.2055,8 120,9.7945 120,12 L120,84 Z M28,42 C35.732,42 42,35.732 42,28 C42,20.268 35.732,14 28,14 C20.268,14 14,20.268 14,28 C14,35.732 20.268,42 28,42 Z M28,22 C31.3085,22 34,24.6915 34,28 C34,31.3085 31.3085,34 28,34 C24.6915,34 22,31.3085 22,28 C22,24.6915 24.6915,22 28,22 Z M79.75725,27.75725 L56,51.51475 L48.24275,43.7575 C45.8995,41.41425 42.1005,41.41425 39.7575,43.7575 L17.7575,65.7575 C16.632218,66.8826296 16,68.4087187 16,70 L16,77 C16,78.65675 17.34325,80 19,80 L109,80 C110.65675,80 112,78.65675 112,77 L112,54 C112,52.40875 111.36775,50.8825 110.24275,49.75725 L88.24275,27.75725 C85.8995,25.41425 82.1005,25.41425 79.75725,27.75725 Z M104,72 L24,72 L24,70.8285 L44,50.8285 L56,62.8285 L84,34.8285 L104,54.8285 L104,72 Z" id="Shape"></path>
                        </g>
                    </g>
                    <g id="text-size" transform="translate(589.000000, 0.000000)" fill="#4894FF" fill-rule="nonzero">
                        <path d="M97,71.5 L97,93.5 C97,96.5375661 94.828581,99 92.15,99 L82.45,99 C79.771419,99 77.6,96.5375661 77.6,93.5 L77.6,88 L60.625,88 L60.625,132 L67.9,132 C70.578581,132 72.75,134.462434 72.75,137.5 L72.75,148.5 C72.75,151.537566 70.578581,154 67.9,154 L29.1,154 C26.421419,154 24.25,151.537566 24.25,148.5 L24.25,137.5 C24.25,134.462434 26.421419,132 29.1,132 L36.375,132 L36.375,88 L19.4,88 L19.4,93.5 C19.4,96.5375661 17.228581,99 14.55,99 L4.85,99 C2.17141896,99 0,96.5375661 0,93.5 L0,71.5 C0,68.4624339 2.17141896,66 4.85,66 L92.15,66 C94.828581,66 97,68.4624339 97,71.5 Z" id="Path" opacity="0.4"></path>
                        <path d="M193,5.5 L193,38.5 C193,41.5375661 190.836043,44 188.166667,44 L178.5,44 C175.830624,44 173.666667,41.5375661 173.666667,38.5 L173.666667,27.5 L147.083333,27.5 L147.083333,132 L159.166667,132 C161.836043,132 164,134.462434 164,137.5 L164,148.5 C164,151.537566 161.836043,154 159.166667,154 L110.833333,154 C108.163957,154 106,151.537566 106,148.5 L106,137.5 C106,134.462434 108.163957,132 110.833333,132 L122.916667,132 L122.916667,27.5 L96.3333333,27.5 L96.3333333,38.5 C96.3333333,41.5375661 94.1693763,44 91.5,44 L81.8333333,44 C79.163957,44 77,41.5375661 77,38.5 L77,5.5 C77,2.46243388 79.163957,0 81.8333333,0 L188.166667,0 C190.836043,0 193,2.46243388 193,5.5 Z" id="Path"></path>
                    </g>
                    <g id="globe-asia" transform="translate(565.000000, 320.000000)" fill-rule="nonzero">
                        <path d="M101.398826,3 L101.398826,14.1392187 C101.399864,16.9844725 100.066341,19.6654013 97.7968418,21.3806829 L84.3833384,31.5122526 C83.6150363,32.0248538 83.1775378,32.9077174 83.2349385,33.8297021 C83.2923391,34.7516867 83.8359628,35.5734365 84.6619091,35.9867323 L88.1699565,37.7395878 C89.9251123,38.6180947 91.0335829,40.4129251 91.0334042,42.3760689 L91.0334042,67.6871732 C91.0334042,69.1187079 89.8732149,70.2791961 88.4420488,70.2791961 L87.4508553,70.2791961 C86.4701197,70.2786723 85.5737106,69.7243857 85.1348315,68.8471035 C85.0111047,68.5966832 84.817619,68.3873948 84.57769,68.2444581 C84.2512637,68.0501436 83.8610172,67.9935479 83.49286,68.0871301 C83.1247028,68.1807123 82.8088156,68.4168007 82.6147383,68.7434225 L82.6147383,68.7434225 L76.9979755,78.1395058 C76.0584907,79.6984805 74.3703894,80.6503574 72.5505618,80.647288 L72.4501468,80.647288 C71.0747277,80.6470658 69.7556282,81.193724 68.7833789,82.1668615 L66.9499949,84.0007177 C65.9388083,85.0128281 65.9388083,86.6530799 66.9499949,87.6651902 L68.7833789,89.4990464 C69.7554719,90.4707525 70.3019239,91.7888684 70.302561,93.1635189 L70.302561,96.1994258 C70.302561,99.0624953 67.9821823,101.383472 65.1198502,101.383472 L63.1439417,101.383472 C61.1840843,101.37936 59.3941812,100.269785 58.5183723,98.5160463 L51.1913149,83.8613965 C50.553963,82.5807275 48.9998427,82.058687 47.7188987,82.6949862 L47.7188987,82.6949862 C47.465935,82.8224356 47.2351541,82.9898222 47.0354287,83.1907106 L40.7287175,89.4958064 C39.7564682,90.4689439 38.4373686,91.0156021 37.0619496,91.0153799 L1,91.0153799 C6.08229578,130.50485 39.8023079,161 80.6679826,161 C125.044944,161 161,125.035681 161,80.647288 C161,43.4290782 135.734285,12.140121 101.398826,3 Z M132.495091,113.834902 C132.494453,115.209553 131.948002,116.527668 130.975908,117.499375 L127.876,120.600082 C126.904544,121.572426 125.586767,122.119018 124.212471,122.119655 L119.301852,122.119655 C117.919609,122.119036 116.594882,121.566147 115.622128,120.583882 L111.411175,116.371845 C109.254452,114.22311 106.129544,113.36237 103.177143,114.103824 L96.2873773,115.82752 C95.876457,115.931008 95.4543147,115.983245 95.0305699,115.983041 L91.681243,115.983041 C90.3148092,115.976412 89.0062819,115.430275 88.0403887,114.463468 L84.1825084,110.604593 C83.6966588,110.118078 83.4239963,109.458391 83.424533,108.770737 L83.424533,105.465908 C83.422713,104.408065 84.0637377,103.455257 85.044134,103.058567 L97.7871242,97.9587614 C98.4284137,97.7037883 99.0364223,97.3719629 99.5978338,96.9705527 L107.277963,91.4981442 C107.716958,91.1859405 108.242306,91.0183296 108.780949,91.0186199 L112.713331,91.0186199 C113.760643,91.0182921 114.70519,91.6485787 115.107096,92.6159541 L116.840065,96.779391 C117.041294,97.2618992 117.512654,97.5762202 118.035327,97.576438 L119.266221,97.576438 C119.842078,97.576438 120.348832,97.1962747 120.510072,96.6433098 L121.857577,91.9485082 C122.018817,91.3955433 122.525571,91.0153799 123.101427,91.0153799 L125.064379,91.0153799 C125.779962,91.0153799 126.360057,91.595624 126.360057,92.3113914 L126.360057,96.5234287 C126.359516,97.2110828 126.632179,97.8707697 127.118028,98.3572849 L130.975908,102.216159 C131.944044,103.183892 132.49017,104.495398 132.495091,105.864431 L132.495091,113.834902 Z" id="Shape" fill="#0069FF" opacity="0.4"></path>
                        <path d="M84.1402949,68.0474613 C84.379935,68.1906032 84.5731877,68.400192 84.6967655,68.6509717 C85.1351162,69.5295134 86.0304459,70.0845957 87.0100007,70.0851203 L88,70.0851203 C89.4294436,70.0851203 90.588236,68.9229661 90.588236,67.4893763 L90.588236,42.1419363 C90.5884145,40.1759743 89.4812785,38.3785672 87.728236,37.4987992 L84.2244125,35.7434274 C83.3994607,35.3295383 82.8564916,34.5066088 82.7991601,33.5833006 C82.7418285,32.6599924 83.1788002,31.7758614 83.9461772,31.2625243 L97.34353,21.11641 C99.6102963,19.3986661 100.942214,16.7138886 100.941178,13.8645503 L100.941178,2.70934048 C94.1861959,0.906357277 87.2254107,-0.00444233512 80.2352949,1.62902773e-05 C35.9117662,1.62902773e-05 0,36.0159805 0,80.4680962 C0,83.9397592 0.22074571,87.4078894 0.663237393,90.8510722 L36.6817662,90.8510722 C38.054408,90.850434 39.3705977,90.3030566 40.3408838,89.3293173 L46.6400014,83.01517 C47.2278326,82.4211231 48.0651968,82.1477698 48.8890643,82.2809749 C49.7129318,82.4141799 50.4222159,82.9375994 50.7941189,83.6868188 L58.1123541,98.3625063 C58.9871085,100.118763 60.7748564,101.22993 62.732354,101.234048 L64.7058834,101.234048 C67.5647691,101.234048 69.8823539,98.9097398 69.8823539,96.0425601 L69.8823539,93.002295 C69.8817176,91.6256711 69.3359236,90.3056629 68.365001,89.3325619 L66.5338246,87.4960731 C65.5238554,86.4825098 65.5238554,84.8399033 66.5338246,83.82634 L68.365001,81.9898511 C69.3360797,81.0153167 70.653591,80.4678737 72.0273539,80.4680962 L72.127648,80.4680962 C73.946089,80.467977 75.6311109,79.510936 76.5664715,77.9469799 L82.1764714,68.5536313 C82.576751,67.8709315 83.453044,67.6428701 84.1338243,68.0442166 L84.1402949,68.0474613 Z M130.482647,102.051707 L126.629412,98.1872936 C126.144147,97.70008 125.871813,97.039446 125.872353,96.3508047 L125.872353,92.1489442 C125.872353,91.4321493 125.292957,90.8510722 124.578235,90.8510722 L122.617647,90.8510722 C122.042484,90.8510722 121.53634,91.2317813 121.375294,91.78554 L120.029412,96.4870813 C119.868366,97.04084 119.362222,97.4215491 118.787059,97.4215491 L117.557647,97.4215491 C117.035603,97.421331 116.564811,97.1065587 116.363824,96.6233579 L114.632941,92.4539441 C114.23152,91.48518 113.28811,90.8539885 112.242059,90.8543169 L108.314412,90.8543169 C107.776417,90.8540261 107.251702,91.0218776 106.813236,91.3345295 L99.1423535,96.814794 C98.581618,97.2167805 97.9743415,97.5490823 97.3338241,97.8044214 L84.6061772,102.911548 C83.6269614,103.308807 82.9867085,104.262983 82.9885263,105.322345 L82.9885263,108.631918 C82.9879903,109.32056 83.2603245,109.981194 83.745589,110.468407 L87.5988242,114.332821 C88.5635545,115.301017 89.8705062,115.847937 91.2352948,115.854576 L94.5805888,115.854576 C95.0038234,115.85478 95.4254574,115.802468 95.8358829,115.698831 L102.717353,113.972662 C105.666199,113.230143 108.787345,114.092118 110.941471,116.243938 L115.147353,120.462022 C116.118936,121.445697 117.442068,121.99938 118.822647,122 L123.727353,122 C125.099995,121.999362 126.416185,121.451984 127.386471,120.478245 L130.482647,117.373086 C131.45357,116.399985 131.999364,115.079977 132,113.703353 L132,105.721441 C131.999364,104.344817 131.45357,103.024808 130.482647,102.051707 Z" id="Shape" fill="#0260F4"></path>
                        <path d="M118.520499,84 C118.524377,77.3627214 118.180112,70.7298558 117.48914,64.1290387 L153,64.1290387 C152.104223,60.7432911 150.97756,57.423607 149.628012,54.193558 L116.152079,54.193558 C113.107409,35.7104591 107.314507,20.139698 99.8634021,9.89373354 C93.0729893,7.9680974 86.0506785,6.99433426 78.9953681,7 C81.7559515,7 84.6709299,8.40651628 87.65693,11.185346 C91.3624111,14.6192965 94.9104091,19.9689319 97.9519915,26.6567523 C101.259133,33.9251774 103.86841,42.4696908 105.711886,52.0481151 C105.847754,52.759123 105.980534,53.4763405 106.107138,54.193558 L51.8835987,54.193558 C52.0102026,53.4763405 52.1429823,52.759123 52.27885,52.0481151 C54.1315905,42.4696908 56.731603,33.9251774 60.0387448,26.6567523 C63.0803272,19.9689319 66.6437647,14.6192965 70.3492458,11.185346 C73.3198064,8.40651628 76.2347848,7 78.9953681,7 C71.9400578,6.99433426 64.917747,7.9680974 58.1273342,9.89373354 C50.6762294,20.139698 44.8833274,35.7104591 41.8386572,54.193558 L8.37198773,54.193558 C7.02243984,57.423607 5.89577729,60.7432911 5,64.1290387 L40.5108598,64.1290387 C39.1336569,77.3401587 39.1336569,90.6598413 40.5108598,103.870961 L5,103.870961 C5.89577729,107.256709 7.02243984,110.576393 8.37198773,113.806442 L41.8386572,113.806442 C44.8833274,132.289541 50.6762294,147.860302 58.1273342,158.106266 C64.917747,160.031903 71.9400578,161.005666 78.9953681,161 C76.2347848,161 73.3198064,159.593484 70.3338063,156.814654 C66.6283252,153.380703 63.0803272,148.031068 60.0387448,141.343248 C56.731603,134.074823 54.1223268,125.530309 52.27885,115.951885 C52.1429823,115.240877 52.0102026,114.52366 51.8835987,113.806442 L106.107138,113.806442 C105.980534,114.52366 105.847754,115.240877 105.711886,115.951885 C103.859146,125.530309 101.259133,134.074823 97.9519915,141.343248 C94.9104091,148.031068 91.3500595,153.380703 87.65693,156.814654 C84.6709299,159.609008 81.7559515,161 78.9953681,161 C86.0506785,161.005666 93.0729893,160.031903 99.8634021,158.106266 C107.314507,147.860302 113.107409,132.289541 116.152079,113.806442 L149.618749,113.806442 C150.968296,110.576393 152.094959,107.256709 152.990736,103.870961 L117.479876,103.870961 C118.175452,97.2704288 118.522813,90.6374824 118.520499,84 Z M106.912162,104 L50.0901344,104 C48.6366219,90.7076329 48.6366219,77.2923671 50.0901344,64 L106.90909,64 C107.63812,70.6408534 108.002319,77.3178918 108,84 C108.002319,90.6821082 107.63812,97.3591466 106.90909,104 L106.912162,104 Z" id="Shape" fill="#0260F4"></path>
                    </g>
                    <g id="cloud-upload" transform="translate(0.000000, 326.000000)" fill="#0168FF" fill-rule="nonzero">
                        <path d="M163.959531,50.6551339 C162.753281,33.1774554 148.187813,19.2857143 130.275,19.2857143 C127.983125,19.2857143 125.721406,19.5267857 123.52,19.9787946 C113.900156,7.92522321 98.9426563,0 82.025,0 C56.5128125,0 35.1320313,17.9899554 30.0657812,42.1272321 C12.0323437,49.4497768 0,67.0178571 0,86.7857143 C0,113.424107 21.591875,135 48.25,135 L149.575,135 C173.549219,135 193,115.563616 193,91.6071429 C193,72.984375 181.17875,56.7120536 163.959531,50.6551339 Z M149.575,120.535714 L48.25,120.535714 C29.5832812,120.535714 14.475,105.438616 14.475,86.7857143 C14.475,69.7901786 27.0501562,55.7176339 43.425,53.3671875 L43.425,53.0357143 C43.425,31.7310268 60.7045312,14.4642857 82.025,14.4642857 C98.1585938,14.4642857 111.970156,24.3482143 117.73,38.390625 C121.1075,35.4977679 125.480156,33.75 130.275,33.75 C140.920156,33.75 149.575,42.3984375 149.575,53.0357143 C149.575,56.5915179 148.61,59.9363839 146.92125,62.7991071 C147.795781,62.7087054 148.700469,62.6785714 149.575,62.6785714 C165.557812,62.6785714 178.525,75.6361607 178.525,91.6071429 C178.525,107.578125 165.557812,120.535714 149.575,120.535714 Z M89.4132812,35.7087054 C87.9959375,34.2924107 85.7040625,34.2924107 84.2867188,35.7087054 L52.9242187,67.0479911 C51.506875,68.4642857 51.506875,70.7544643 52.9242187,72.1707589 L58.020625,77.2633929 C59.4379687,78.6796875 61.76,78.6796875 63.1773437,77.2332589 L79.6125,60.4185268 L79.6125,102.455357 C79.6125,104.444196 81.2409375,106.071429 83.23125,106.071429 L90.46875,106.071429 C92.4590625,106.071429 94.0875,104.444196 94.0875,102.455357 L94.0875,60.4185268 L110.522656,77.2332589 C111.94,78.6796875 114.231875,78.6796875 115.679375,77.2633929 L120.775781,72.1707589 C122.193125,70.7544643 122.193125,68.4642857 120.775781,67.0479911 L89.4132812,35.7087054 L89.4132812,35.7087054 Z" id="Shape"></path>
                    </g>
                </g>
                <g id="arrow-alt-to-left" transform="translate(840.000000, 245.000000) scale(-1, 1) translate(-840.000000, -245.000000) translate(759.000000, 192.000000)" fill="#0260F4" fill-rule="nonzero">
                    <path d="M101.238132,92.7324252 L101.238132,78.485351 L141.746044,78.485351 C152.927916,78.485351 162,72.5490701 162,65.2322588 L162,40.7692594 C162,33.452448 152.927916,27.5161671 141.746044,27.5161671 L101.238132,27.5161671 L101.238132,13.269093 C101.238132,1.50697361 79.4229342,-4.4569179 66.6798203,3.90909658 L5.91795273,43.6407627 C-1.97265091,48.8039465 -1.97265091,57.1975716 5.91795273,62.3883661 L66.6798203,102.147643 C79.3807384,110.403215 101.238132,104.522155 101.238132,92.7324252 Z M18.4564216,52.6839252 L84.8241635,9.48224451 L84.8241635,39.3934081 L151.191905,39.3934081 L151.191905,65.9744422 L84.8241635,65.9744422 L84.8241635,95.8856059 L18.4564216,52.6839252 Z" id="Shape"></path>
                </g>
            </g>
        </g>
    </g>
</svg>