<?xml version="1.0" encoding="UTF-8"?>
<svg width="301px" height="81px" viewBox="0 0 301 81" version="1.1" xmlns="http://www.w3.org/2000/svg" xmlns:xlink="http://www.w3.org/1999/xlink">
    <!-- Generator: Sketch 63 (92445) - https://sketch.com -->
    <title>logo_white_full</title>
    <desc>Created with Sketch.</desc>
    <g id="Page-1" stroke="none" stroke-width="1" fill="none" fill-rule="evenodd">
        <g id="logos" transform="translate(-92.000000, -366.000000)">
            <g id="logo_white_full" transform="translate(92.000000, 371.000000)">
                <path d="M130.4,75 L131.2,73.9 C131.2,73.7666667 131.133333,73.6333333 131,73.5 C129.933333,70.9 129.4,65.7666667 129.4,58.1 L129.4,-3.7 L128.4,-4.5 C126.6,-4.1 124.716667,-3.73333333 122.75,-3.4 C120.783333,-3.06666667 118.733333,-2.83333333 116.6,-2.7 L116.6,-2.7 L115.9,-1.4 C116.433333,-0.333333333 116.7,1.06666667 116.7,2.8 L116.7,2.8 L116.7,74.1 L117.6,75 L130.4,75 Z M98.3,74.6 L99.4,73.3 C99.2,72.9666667 99,72.6166667 98.8,72.25 C98.6,71.8833333 98.4,71.5333333 98.2,71.2 C96.4666667,67.0666667 95.6,59.9666667 95.6,49.9 C95.6,48.6333333 95.6333333,46.95 95.7,44.85 C95.7666667,42.75 95.9833333,40.5666667 96.35,38.3 C96.7166667,36.0333333 97.3,33.8666667 98.1,31.8 C98.9,29.7333333 100.066667,28.1 101.6,26.9 L101.6,26.9 L100.9,25.3 C95.4333333,25.7 90.8666667,27.9333333 87.2,32 C83.0666667,36.5333333 81,42.3333333 81,49.4 C81,58.8666667 84.7666667,66.1666667 92.3,71.3 C93.2333333,72.0333333 94.2166667,72.6666667 95.25,73.2 C96.2833333,73.7333333 97.3,74.2 98.3,74.6 L98.3,74.6 Z M158.260257,75.1 L159.260257,73.7 C158.79359,73.1 158.360257,72.3666667 157.960257,71.5 C156.826924,69.1 155.976924,65.9166667 155.410257,61.95 C154.84359,57.9833333 154.560257,53.1666667 154.560257,47.5 C154.560257,43.4333333 154.810257,39.8333333 155.310257,36.7 C155.810257,33.5666667 156.526924,30.8 157.460257,28.4 C157.660257,27.8 157.910257,27.2333333 158.210257,26.7 C158.510257,26.1666667 158.826924,25.6333333 159.160257,25.1 L159.160257,25.1 L158.060257,23.8 C154.126924,25 150.560257,27.2 147.360257,30.4 C144.69359,33.1333333 142.69359,36.0666667 141.360257,39.2 C140.026924,42.3333333 139.360257,45.8333333 139.360257,49.7 C139.360257,53.3 140.026924,56.6333333 141.360257,59.7 C142.69359,62.7666667 144.69359,65.6666667 147.360257,68.4 C150.69359,71.6 154.326924,73.8333333 158.260257,75.1 L158.260257,75.1 Z M175.960257,74.7 C177.29359,74.1666667 178.59359,73.5166667 179.860257,72.75 C181.126924,71.9833333 182.39359,71.1333333 183.660257,70.2 C190.260257,65 193.560257,58.2333333 193.560257,49.9 C193.560257,42.3666667 190.89359,35.9 185.560257,30.5 C182.560257,27.3 179.19359,25.0666667 175.460257,23.8 L175.460257,23.8 L174.360257,25.1 C174.626924,25.6333333 174.89359,26.1333333 175.160257,26.6 C175.426924,27.0666667 175.660257,27.5666667 175.860257,28.1 C177.260257,32.2333333 177.960257,39.5333333 177.960257,50 C177.960257,54.3333333 177.826924,58.1166667 177.560257,61.35 C177.29359,64.5833333 176.860257,67.3666667 176.260257,69.7 C176.060257,70.4333333 175.84359,71.0833333 175.610257,71.65 C175.376924,72.2166667 175.09359,72.7666667 174.760257,73.3 L174.760257,73.3 L175.960257,74.7 Z M214.520514,75 L215.420514,73.9 C215.287181,73.6333333 215.220514,73.5 215.220514,73.5 C214.153847,70.9 213.620514,65.7666667 213.620514,58.1 L213.620514,58.1 L213.620514,-3.7 L212.520514,-4.5 C210.720514,-4.1 208.853847,-3.73333333 206.920514,-3.4 C204.987181,-3.06666667 202.953847,-2.83333333 200.820514,-2.7 L200.820514,-2.7 L200.120514,-1.4 C200.587181,-0.466666667 200.820514,0.933333333 200.820514,2.8 L200.820514,2.8 L200.820514,72.8 C200.820514,73.4 200.853847,73.8333333 200.920514,74.1 L200.920514,74.1 L201.720514,75 L214.520514,75 Z M238.120514,27.7 L246.020514,19.8 L246.120514,19.8 L245.520514,18.2 L227.920514,18.2 L227.520514,19.9 C231.453847,22.1 234.553847,24.6666667 236.820514,27.6 L236.820514,27.6 L237.120514,27.6 L238.120514,27.7 Z M247.220514,75.3 L248.020514,73.9 L247.420514,73 L246.320514,71.6 L244.320514,68.6 C243.720514,67.6666667 243.303847,67.0333333 243.070514,66.7 C242.837181,66.3666667 242.687181,66.1333333 242.620514,66 C241.753847,64.8 241.037181,63.75 240.470514,62.85 C239.903847,61.95 239.453847,61.2333333 239.120514,60.7 L239.120514,60.7 L225.820514,40.4 L224.320514,40.3 L222.820514,42.1 C221.687181,43.4333333 220.670514,44.5666667 219.770514,45.5 C218.870514,46.4333333 218.087181,47.2333333 217.420514,47.9 L217.420514,47.9 L217.320514,49 C218.387181,50.6 219.320514,52.0666667 220.120514,53.4 C220.920514,54.7333333 221.620514,55.9333333 222.220514,57 C224.020514,60 225.420514,62.2 226.420514,63.6 C227.687181,65.7333333 228.687181,67.4333333 229.420514,68.7 C230.153847,69.9666667 230.670514,70.95 230.970514,71.65 C231.270514,72.35 231.453847,72.8333333 231.520514,73.1 C231.587181,73.3666667 231.620514,73.6 231.620514,73.8 L231.620514,73.8 L231.620514,74.2 L232.420514,75.3 L247.220514,75.3 Z M261.180771,35.5 C262.314104,33.5666667 263.580771,31.7666667 264.980771,30.1 C266.380771,28.4333333 267.847438,27 269.380771,25.8 L269.380771,25.8 L268.880771,24.1 L260.380771,24.1 L259.480771,25 L259.480771,35.1 L261.180771,35.5 Z M271.880771,75 L272.680771,74.6 L294.280771,36 C295.814104,33.4 297.030771,31.25 297.930771,29.55 C298.830771,27.85 299.547438,26.5 300.080771,25.5 L300.080771,25.5 L299.280771,24.2 L287.880771,24.2 L287.080771,24.6 L283.880771,30.4 C281.814104,34 279.914104,37.3333333 278.180771,40.4 C276.447438,43.4666667 274.814104,46.2 273.280771,48.6 C271.547438,52 269.880771,55.1166667 268.280771,57.95 C266.680771,60.7833333 265.214104,63.4333333 263.880771,65.9 C263.014104,67.3666667 262.230771,68.75 261.530771,70.05 C260.830771,71.35 260.180771,72.5666667 259.580771,73.7 L259.580771,73.7 L260.380771,75 L271.880771,75 Z M299.280771,74.9 L300.180771,74 L300.180771,64 L298.580771,63.5 C296.247438,67.5 293.480771,70.7666667 290.280771,73.3 L290.280771,73.3 L290.880771,74.9 L299.280771,74.9 Z" id="dokz" fill="#FFFFFF" fill-rule="nonzero"></path>
                <g id="book-heart-copy" transform="translate(0.000000, 2.000000)" fill="#FFFFFF" fill-rule="nonzero">
                    <path d="M13.4563179,64 C10.7825271,64 9,62 9,59 C9,56 11.2281589,54 13.4563179,54 L57.9261922,54 C57.6574206,56.5375 57.6810948,61.559375 58,64 L13.4563179,64 Z" id="Path" fill-opacity="0.38243007" opacity="0.4"></path>
                    <path d="M13.5,2.5 C10.4663345,2.5 7.7214738,3.74940626 5.73397458,5.76450964 C3.73408082,7.7921797 2.5,10.5941703 2.5,13.6875 L2.5,59.3125 C2.5,62.4058297 3.73408082,65.2078203 5.73397458,67.2354904 C7.7214738,69.2505937 10.4663345,70.5 13.5,70.5 L59.625,70.5 C59.8627239,70.5 60.0763347,70.399613 60.2315693,70.2422223 C60.3991984,70.072265 60.5,69.8366807 60.5,69.578125 L60.5,67.296875 C60.5,67.0383193 60.3991984,66.802735 60.2315693,66.6327777 C60.0763347,66.475387 59.8627239,66.375 59.625,66.375 L13.5,66.375 C11.3953878,66.375 9.6747188,65.6098858 8.45758388,64.3758462 C7.25213915,63.1536592 6.5,61.4265529 6.5,59.3125 C6.5,57.2852156 7.30421427,55.5857636 8.51372945,54.3594496 C9.84290401,53.0118143 11.6748971,52.25 13.5,52.25 L59.625,52.25 C59.8627239,52.25 60.0763347,52.149613 60.2315693,51.9922223 C60.3991984,51.822265 60.5,51.5866807 60.5,51.328125 L60.1408281,4.70456692 C58.8582156,4.23907104 56.6873296,3.85971981 53.051365,3.52458672 C46.074059,2.88147643 34.0836406,2.5 13.5,2.5 Z" id="Shape" stroke="#FFFFFF" stroke-width="5"></path>
                </g>
                <polyline id="Path" stroke="#000000" stroke-width="4" stroke-linecap="round" stroke-linejoin="round" points="27 13.5 20.5 13.5 14 13.5"></polyline>
                <line x1="47.4285714" y1="25.0862069" x2="14" y2="25.0862069" id="Path" stroke="#000000" stroke-width="4" stroke-linecap="round" stroke-linejoin="round"></line>
            </g>
        </g>
    </g>
</svg>