<?xml version="1.0" encoding="UTF-8"?>
<svg width="63px" height="73px" viewBox="0 0 63 73" version="1.1" xmlns="http://www.w3.org/2000/svg" xmlns:xlink="http://www.w3.org/1999/xlink">
    <!-- Generator: Sketch 63 (92445) - https://sketch.com -->
    <title>logo_white</title>
    <desc>Created with Sketch.</desc>
    <g id="Page-1" stroke="none" stroke-width="1" fill="none" fill-rule="evenodd">
        <g id="logos" transform="translate(-508.000000, -376.000000)">
            <g id="logo_white" transform="translate(508.000000, 376.000000)">
                <g id="book-heart-copy" fill="#FFFFFF" fill-rule="nonzero">
                    <path d="M13.4563179,64 C10.7825271,64 9,62 9,59 C9,56 11.2281589,54 13.4563179,54 L57.9261922,54 C57.6574206,56.5375 57.6810948,61.559375 58,64 L13.4563179,64 Z" id="Path" fill-opacity="0.38243007" opacity="0.4"></path>
                    <path d="M13.5,2.5 C10.4663345,2.5 7.7214738,3.74940626 5.73397458,5.76450964 C3.73408082,7.7921797 2.5,10.5941703 2.5,13.6875 L2.5,59.3125 C2.5,62.4058297 3.73408082,65.2078203 5.73397458,67.2354904 C7.7214738,69.2505937 10.4663345,70.5 13.5,70.5 L59.625,70.5 C59.8627239,70.5 60.0763347,70.399613 60.2315693,70.2422223 C60.3991984,70.072265 60.5,69.8366807 60.5,69.578125 L60.5,67.296875 C60.5,67.0383193 60.3991984,66.802735 60.2315693,66.6327777 C60.0763347,66.475387 59.8627239,66.375 59.625,66.375 L13.5,66.375 C11.3953878,66.375 9.6747188,65.6098858 8.45758388,64.3758462 C7.25213915,63.1536592 6.5,61.4265529 6.5,59.3125 C6.5,57.2852156 7.30421427,55.5857636 8.51372945,54.3594496 C9.84290401,53.0118143 11.6748971,52.25 13.5,52.25 L59.625,52.25 C59.8627239,52.25 60.0763347,52.149613 60.2315693,51.9922223 C60.3991984,51.822265 60.5,51.5866807 60.5,51.328125 L60.1408281,4.70456692 C58.8582156,4.23907104 56.6873296,3.85971981 53.051365,3.52458672 C46.074059,2.88147643 34.0836406,2.5 13.5,2.5 Z" id="Shape" stroke="#FFFFFF" stroke-width="5"></path>
                </g>
                <polyline id="Path" stroke="#000000" stroke-width="4" stroke-linecap="round" stroke-linejoin="round" points="27 11.5 20.5 11.5 14 11.5"></polyline>
                <line x1="47.4285714" y1="23.0862069" x2="14" y2="23.0862069" id="Path" stroke="#000000" stroke-width="4" stroke-linecap="round" stroke-linejoin="round"></line>
            </g>
        </g>
    </g>
</svg>