<?xml version="1.0" encoding="UTF-8"?>
<svg width="947px" height="426px" viewBox="0 0 947 426" version="1.1" xmlns="http://www.w3.org/2000/svg" xmlns:xlink="http://www.w3.org/1999/xlink">
    <title>Notaku_banner</title>
    <defs>
        <linearGradient x1="-11.430849%" y1="17.3180042%" x2="103.40984%" y2="23.7942166%" id="linearGradient-1">
            <stop stop-color="#3C2A7B" offset="0%"></stop>
            <stop stop-color="#FF5191" stop-opacity="0" offset="100%"></stop>
        </linearGradient>
        <linearGradient x1="40.1551015%" y1="-24.2199881%" x2="40.1551015%" y2="100%" id="linearGradient-2">
            <stop stop-color="#1F76FF" offset="0%"></stop>
            <stop stop-color="#18181B" stop-opacity="0.591779802" offset="100%"></stop>
        </linearGradient>
    </defs>
    <g id="Notaku_banner" stroke="none" stroke-width="1" fill="none" fill-rule="evenodd">
        <rect fill="#000000" x="0" y="0" width="947" height="426"></rect>
        <g id="gradient-bg-sketch" opacity="0.623340425" transform="translate(-8.000000, -112.000000)" fill-rule="nonzero">
            <path d="M576,0 C557.975666,38.5880651 559.966915,152.304496 490.432737,208.5 C420.898561,264.695504 288.964441,169.624314 219.721385,196.443087 C150.47833,223.261861 0,417 0,417 L0,0 L576,0 Z" id="Path" fill="url(#linearGradient-1)"></path>
            <path d="M960,0 C960,0 854.859648,38.9162682 740.824716,153.47509 C626.789783,268.033911 631.687671,410.307679 510.478401,425.863088 C452.154836,433.348051 357.598898,346.816226 278.083794,357.996807 C227.879616,365.055993 203.106557,388.626527 6,486.234987 L6,547 L960,547 L960,0 Z" id="Path" fill="url(#linearGradient-2)"></path>
        </g>
        <path d="M49.8847656,199 C54.3769531,199 57.8876953,197.955078 60.4169922,195.865234 C62.9462891,193.775391 64.2109375,190.865234 64.2109375,187.134766 C64.2109375,184.341797 63.3613281,182.022461 61.6621094,180.176758 C59.9628906,178.331055 57.6679688,177.222656 54.7773438,176.851562 L54.7773438,176.851562 L54.7773438,176.382812 C56.8085938,176.011719 58.5322266,174.947266 59.9482422,173.189453 C61.3642578,171.431641 62.0722656,169.458984 62.0722656,167.271484 C62.0722656,164.029297 60.9541016,161.460938 58.7177734,159.566406 C56.4814453,157.671875 53.4296875,156.724609 49.5625,156.724609 L49.5625,156.724609 L33.390625,156.724609 L33.390625,199 L49.8847656,199 Z M47.1015625,174.947266 L38.6640625,174.947266 L38.6640625,161.382812 L48.4492188,161.382812 C51.0664062,161.382812 53.1025391,161.978516 54.5576172,163.169922 C56.0126953,164.361328 56.7402344,166.03125 56.7402344,168.179688 C56.7402344,172.691406 53.5273438,174.947266 47.1015625,174.947266 L47.1015625,174.947266 Z M49.09375,194.341797 L38.6640625,194.341797 L38.6640625,179.488281 L48.5957031,179.488281 C55.3925781,179.488281 58.7910156,181.949219 58.7910156,186.871094 C58.7910156,189.3125 57.9707031,191.167969 56.3300781,192.4375 C54.6894531,193.707031 52.2773438,194.341797 49.09375,194.341797 L49.09375,194.341797 Z M82.6679688,199.556641 C85.0703125,199.556641 87.1015625,199.083008 88.7617188,198.135742 C90.421875,197.188477 91.6523438,195.826172 92.453125,194.048828 L92.453125,194.048828 L92.921875,194.048828 L92.921875,199 L97.7265625,199 L97.7265625,167.417969 L92.6875,167.417969 L92.6875,186.109375 C92.6875,188.902344 91.9404297,191.075195 90.4462891,192.62793 C88.9521484,194.180664 86.828125,194.957031 84.0742188,194.957031 C81.5742188,194.957031 79.7578125,194.288086 78.625,192.950195 C77.4921875,191.612305 76.9257812,189.507812 76.9257812,186.636719 L76.9257812,186.636719 L76.9257812,167.417969 L71.8867188,167.417969 L71.8867188,187.867188 C71.8867188,191.636719 72.8046875,194.527344 74.640625,196.539062 C76.4765625,198.550781 79.1523438,199.556641 82.6679688,199.556641 Z M109.855469,161.001953 C110.832031,161.001953 111.662109,160.660156 112.345703,159.976562 C113.029297,159.273438 113.371094,158.443359 113.371094,157.486328 C113.371094,156.529297 113.029297,155.704102 112.345703,155.010742 C111.662109,154.317383 110.832031,153.970703 109.855469,153.970703 C108.878906,153.970703 108.048828,154.317383 107.365234,155.010742 C106.681641,155.704102 106.339844,156.529297 106.339844,157.486328 C106.339844,158.443359 106.681641,159.268555 107.365234,159.961914 C108.048828,160.655273 108.878906,161.001953 109.855469,161.001953 Z M112.375,199 L112.375,167.417969 L107.335938,167.417969 L107.335938,199 L112.375,199 Z M127.316406,199 L127.316406,154.878906 L122.277344,154.878906 L122.277344,199 L127.316406,199 Z M148.791016,199.556641 C150.978516,199.556641 152.960938,199.063477 154.738281,198.077148 C156.515625,197.09082 157.902344,195.71875 158.898438,193.960938 L158.898438,193.960938 L159.367188,193.960938 L159.367188,199 L164.171875,199 L164.171875,154.878906 L159.132812,154.878906 L159.132812,172.398438 L158.693359,172.398438 C157.794922,170.679688 156.47168,169.327148 154.723633,168.34082 C152.975586,167.354492 150.998047,166.861328 148.791016,166.861328 C144.767578,166.861328 141.549805,168.350586 139.137695,171.329102 C136.725586,174.307617 135.519531,178.267578 135.519531,183.208984 C135.519531,188.169922 136.720703,192.134766 139.123047,195.103516 C141.525391,198.072266 144.748047,199.556641 148.791016,199.556641 Z M149.962891,195.015625 C147.072266,195.015625 144.811523,193.970703 143.180664,191.880859 C141.549805,189.791016 140.734375,186.900391 140.734375,183.208984 C140.734375,179.537109 141.554688,176.651367 143.195312,174.551758 C144.835938,172.452148 147.091797,171.402344 149.962891,171.402344 C152.814453,171.402344 155.075195,172.466797 156.745117,174.595703 C158.415039,176.724609 159.25,179.595703 159.25,183.208984 C159.25,186.861328 158.419922,189.742188 156.759766,191.851562 C155.099609,193.960938 152.833984,195.015625 149.962891,195.015625 Z M193.585938,210.425781 C196.398438,210.425781 198.566406,209.756836 200.089844,208.418945 C201.613281,207.081055 203.048828,204.585938 204.396484,200.933594 L204.396484,200.933594 L216.730469,167.417969 L211.369141,167.417969 L202.726562,193.404297 L202.257812,193.404297 L193.585938,167.417969 L188.136719,167.417969 L199.826172,199.029297 L199.240234,200.904297 C198.576172,202.798828 197.80957,204.136719 196.94043,204.917969 C196.071289,205.699219 194.904297,206.089844 193.439453,206.089844 C192.541016,206.089844 191.837891,206.041016 191.330078,205.943359 L191.330078,205.943359 L191.330078,210.25 C192.033203,210.367188 192.785156,210.425781 193.585938,210.425781 Z M236.447266,199.556641 C240.939453,199.556641 244.484375,198.101562 247.082031,195.191406 C249.699219,192.261719 251.007812,188.267578 251.007812,183.208984 C251.007812,178.130859 249.708984,174.136719 247.111328,171.226562 C244.513672,168.316406 240.958984,166.861328 236.447266,166.861328 C231.935547,166.861328 228.380859,168.316406 225.783203,171.226562 C223.185547,174.136719 221.886719,178.130859 221.886719,183.208984 C221.886719,188.267578 223.19043,192.256836 225.797852,195.176758 C228.405273,198.09668 231.955078,199.556641 236.447266,199.556641 Z M236.447266,195.015625 C233.458984,195.015625 231.154297,193.990234 229.533203,191.939453 C227.912109,189.869141 227.101562,186.958984 227.101562,183.208984 C227.101562,179.458984 227.912109,176.553711 229.533203,174.493164 C231.154297,172.432617 233.458984,171.402344 236.447266,171.402344 C239.435547,171.402344 241.740234,172.432617 243.361328,174.493164 C244.982422,176.553711 245.792969,179.458984 245.792969,183.208984 C245.792969,186.958984 244.982422,189.864258 243.361328,191.924805 C241.740234,193.985352 239.435547,195.015625 236.447266,195.015625 Z M269.40625,199.556641 C271.808594,199.556641 273.839844,199.083008 275.5,198.135742 C277.160156,197.188477 278.390625,195.826172 279.191406,194.048828 L279.191406,194.048828 L279.660156,194.048828 L279.660156,199 L284.464844,199 L284.464844,167.417969 L279.425781,167.417969 L279.425781,186.109375 C279.425781,188.902344 278.678711,191.075195 277.18457,192.62793 C275.69043,194.180664 273.566406,194.957031 270.8125,194.957031 C268.3125,194.957031 266.496094,194.288086 265.363281,192.950195 C264.230469,191.612305 263.664062,189.507812 263.664062,186.636719 L263.664062,186.636719 L263.664062,167.417969 L258.625,167.417969 L258.625,187.867188 C258.625,191.636719 259.542969,194.527344 261.378906,196.539062 C263.214844,198.550781 265.890625,199.556641 269.40625,199.556641 Z M298.996094,199 L298.996094,179.429688 C298.996094,177.203125 299.777344,175.367188 301.339844,173.921875 C302.902344,172.476562 304.884766,171.753906 307.287109,171.753906 C308.751953,171.753906 309.826172,171.851562 310.509766,172.046875 L310.509766,172.046875 L310.509766,167.007812 C309.787109,166.910156 308.947266,166.861328 307.990234,166.861328 C305.900391,166.861328 304.035156,167.349609 302.394531,168.326172 C300.753906,169.302734 299.699219,170.5625 299.230469,172.105469 L299.230469,172.105469 L298.761719,172.105469 L298.761719,167.417969 L293.957031,167.417969 L293.957031,199 L298.996094,199 Z M338.78125,209.546875 L338.78125,194.253906 L339.25,194.253906 C340.109375,195.933594 341.408203,197.237305 343.146484,198.165039 C344.884766,199.092773 346.876953,199.556641 349.123047,199.556641 C353.126953,199.556641 356.339844,198.067383 358.761719,195.088867 C361.183594,192.110352 362.394531,188.150391 362.394531,183.208984 C362.394531,178.248047 361.188477,174.283203 358.776367,171.314453 C356.364258,168.345703 353.146484,166.861328 349.123047,166.861328 C346.974609,166.861328 345.006836,167.378906 343.219727,168.414062 C341.432617,169.449219 340.03125,170.875 339.015625,172.691406 L339.015625,172.691406 L338.546875,172.691406 L338.546875,167.417969 L333.742188,167.417969 L333.742188,209.546875 L338.78125,209.546875 Z M347.921875,195.015625 C345.070312,195.015625 342.80957,193.951172 341.139648,191.822266 C339.469727,189.693359 338.634766,186.822266 338.634766,183.208984 C338.634766,179.576172 339.474609,176.700195 341.154297,174.581055 C342.833984,172.461914 345.099609,171.402344 347.951172,171.402344 C350.841797,171.402344 353.102539,172.447266 354.733398,174.537109 C356.364258,176.626953 357.179688,179.517578 357.179688,183.208984 C357.179688,186.900391 356.359375,189.791016 354.71875,191.880859 C353.078125,193.970703 350.8125,195.015625 347.921875,195.015625 Z M375.34375,199 L375.34375,179.429688 C375.34375,177.203125 376.125,175.367188 377.6875,173.921875 C379.25,172.476562 381.232422,171.753906 383.634766,171.753906 C385.099609,171.753906 386.173828,171.851562 386.857422,172.046875 L386.857422,172.046875 L386.857422,167.007812 C386.134766,166.910156 385.294922,166.861328 384.337891,166.861328 C382.248047,166.861328 380.382812,167.349609 378.742188,168.326172 C377.101562,169.302734 376.046875,170.5625 375.578125,172.105469 L375.578125,172.105469 L375.109375,172.105469 L375.109375,167.417969 L370.304688,167.417969 L370.304688,199 L375.34375,199 Z M406.134766,199.556641 C410.626953,199.556641 414.171875,198.101562 416.769531,195.191406 C419.386719,192.261719 420.695312,188.267578 420.695312,183.208984 C420.695312,178.130859 419.396484,174.136719 416.798828,171.226562 C414.201172,168.316406 410.646484,166.861328 406.134766,166.861328 C401.623047,166.861328 398.068359,168.316406 395.470703,171.226562 C392.873047,174.136719 391.574219,178.130859 391.574219,183.208984 C391.574219,188.267578 392.87793,192.256836 395.485352,195.176758 C398.092773,198.09668 401.642578,199.556641 406.134766,199.556641 Z M406.134766,195.015625 C403.146484,195.015625 400.841797,193.990234 399.220703,191.939453 C397.599609,189.869141 396.789062,186.958984 396.789062,183.208984 C396.789062,179.458984 397.599609,176.553711 399.220703,174.493164 C400.841797,172.432617 403.146484,171.402344 406.134766,171.402344 C409.123047,171.402344 411.427734,172.432617 413.048828,174.493164 C414.669922,176.553711 415.480469,179.458984 415.480469,183.208984 C415.480469,186.958984 414.669922,189.864258 413.048828,191.924805 C411.427734,193.985352 409.123047,195.015625 406.134766,195.015625 Z M440.294922,199.556641 C442.482422,199.556641 444.464844,199.063477 446.242188,198.077148 C448.019531,197.09082 449.40625,195.71875 450.402344,193.960938 L450.402344,193.960938 L450.871094,193.960938 L450.871094,199 L455.675781,199 L455.675781,154.878906 L450.636719,154.878906 L450.636719,172.398438 L450.197266,172.398438 C449.298828,170.679688 447.975586,169.327148 446.227539,168.34082 C444.479492,167.354492 442.501953,166.861328 440.294922,166.861328 C436.271484,166.861328 433.053711,168.350586 430.641602,171.329102 C428.229492,174.307617 427.023438,178.267578 427.023438,183.208984 C427.023438,188.169922 428.224609,192.134766 430.626953,195.103516 C433.029297,198.072266 436.251953,199.556641 440.294922,199.556641 Z M441.466797,195.015625 C438.576172,195.015625 436.31543,193.970703 434.68457,191.880859 C433.053711,189.791016 432.238281,186.900391 432.238281,183.208984 C432.238281,179.537109 433.058594,176.651367 434.699219,174.551758 C436.339844,172.452148 438.595703,171.402344 441.466797,171.402344 C444.318359,171.402344 446.579102,172.466797 448.249023,174.595703 C449.918945,176.724609 450.753906,179.595703 450.753906,183.208984 C450.753906,186.861328 449.923828,189.742188 448.263672,191.851562 C446.603516,193.960938 444.337891,195.015625 441.466797,195.015625 Z M475.949219,199.556641 C478.351562,199.556641 480.382812,199.083008 482.042969,198.135742 C483.703125,197.188477 484.933594,195.826172 485.734375,194.048828 L485.734375,194.048828 L486.203125,194.048828 L486.203125,199 L491.007812,199 L491.007812,167.417969 L485.96875,167.417969 L485.96875,186.109375 C485.96875,188.902344 485.22168,191.075195 483.727539,192.62793 C482.233398,194.180664 480.109375,194.957031 477.355469,194.957031 C474.855469,194.957031 473.039062,194.288086 471.90625,192.950195 C470.773438,191.612305 470.207031,189.507812 470.207031,186.636719 L470.207031,186.636719 L470.207031,167.417969 L465.167969,167.417969 L465.167969,187.867188 C465.167969,191.636719 466.085938,194.527344 467.921875,196.539062 C469.757812,198.550781 472.433594,199.556641 475.949219,199.556641 Z M513.419922,199.556641 C517.111328,199.556641 520.119141,198.624023 522.443359,196.758789 C524.767578,194.893555 526.164062,192.466797 526.632812,189.478516 L526.632812,189.478516 L521.535156,189.478516 C521.066406,191.255859 520.124023,192.623047 518.708008,193.580078 C517.291992,194.537109 515.519531,195.015625 513.390625,195.015625 C510.578125,195.015625 508.332031,193.936523 506.652344,191.77832 C504.972656,189.620117 504.132812,186.724609 504.132812,183.091797 C504.132812,179.517578 504.967773,176.675781 506.637695,174.566406 C508.307617,172.457031 510.558594,171.402344 513.390625,171.402344 C515.558594,171.402344 517.350586,171.93457 518.766602,172.999023 C520.182617,174.063477 521.105469,175.425781 521.535156,177.085938 L521.535156,177.085938 L526.632812,177.085938 C526.164062,174.136719 524.762695,171.695312 522.428711,169.761719 C520.094727,167.828125 517.082031,166.861328 513.390625,166.861328 C508.976562,166.861328 505.460938,168.335938 502.84375,171.285156 C500.226562,174.234375 498.917969,178.169922 498.917969,183.091797 C498.917969,188.111328 500.226562,192.110352 502.84375,195.088867 C505.460938,198.067383 508.986328,199.556641 513.419922,199.556641 Z M545.294922,199.234375 C546.154297,199.234375 547.140625,199.136719 548.253906,198.941406 L548.253906,198.941406 L548.253906,194.693359 C547.414062,194.771484 546.632812,194.810547 545.910156,194.810547 C544.269531,194.810547 543.078125,194.390625 542.335938,193.550781 C541.59375,192.710938 541.222656,191.363281 541.222656,189.507812 L541.222656,189.507812 L541.222656,171.636719 L548.253906,171.636719 L548.253906,167.417969 L541.222656,167.417969 L541.222656,159.244141 L536.183594,159.244141 L536.183594,167.417969 L531.085938,167.417969 L531.085938,171.636719 L536.183594,171.636719 L536.183594,190.796875 C536.183594,193.804688 536.886719,195.962891 538.292969,197.271484 C539.699219,198.580078 542.033203,199.234375 545.294922,199.234375 Z M561.056641,172.515625 L561.056641,156.724609 L556.369141,156.724609 L556.369141,172.515625 L561.056641,172.515625 Z M581.886719,199.556641 C585.519531,199.556641 588.537109,198.663086 590.939453,196.875977 C593.341797,195.088867 594.542969,192.798828 594.542969,190.005859 C594.542969,187.759766 593.825195,185.953125 592.389648,184.585938 C590.954102,183.21875 588.732422,182.173828 585.724609,181.451172 L585.724609,181.451172 L580.861328,180.279297 C578.986328,179.830078 577.604492,179.249023 576.71582,178.536133 C575.827148,177.823242 575.382812,176.929688 575.382812,175.855469 C575.382812,174.46875 576.022461,173.335938 577.301758,172.457031 C578.581055,171.578125 580.167969,171.138672 582.0625,171.138672 C583.9375,171.138672 585.475586,171.514648 586.676758,172.266602 C587.87793,173.018555 588.654297,174.039062 589.005859,175.328125 L589.005859,175.328125 L593.986328,175.328125 C593.654297,172.730469 592.414062,170.669922 590.265625,169.146484 C588.117188,167.623047 585.392578,166.861328 582.091797,166.861328 C578.732422,166.861328 575.929688,167.740234 573.683594,169.498047 C571.4375,171.255859 570.314453,173.443359 570.314453,176.060547 C570.314453,178.326172 571.00293,180.137695 572.379883,181.495117 C573.756836,182.852539 575.939453,183.892578 578.927734,184.615234 L578.927734,184.615234 L584.347656,185.933594 C587.6875,186.753906 589.357422,188.238281 589.357422,190.386719 C589.357422,191.832031 588.673828,193.013672 587.306641,193.931641 C585.939453,194.849609 584.191406,195.308594 582.0625,195.308594 C580.089844,195.308594 578.46875,194.922852 577.199219,194.151367 C575.929688,193.379883 575.080078,192.310547 574.650391,190.943359 L574.650391,190.943359 L569.464844,190.943359 C569.738281,193.560547 570.998047,195.650391 573.244141,197.212891 C575.490234,198.775391 578.371094,199.556641 581.886719,199.556641 Z M631.076172,199.556641 C633.263672,199.556641 635.246094,199.063477 637.023438,198.077148 C638.800781,197.09082 640.1875,195.71875 641.183594,193.960938 L641.183594,193.960938 L641.652344,193.960938 L641.652344,199 L646.457031,199 L646.457031,154.878906 L641.417969,154.878906 L641.417969,172.398438 L640.978516,172.398438 C640.080078,170.679688 638.756836,169.327148 637.008789,168.34082 C635.260742,167.354492 633.283203,166.861328 631.076172,166.861328 C627.052734,166.861328 623.834961,168.350586 621.422852,171.329102 C619.010742,174.307617 617.804688,178.267578 617.804688,183.208984 C617.804688,188.169922 619.005859,192.134766 621.408203,195.103516 C623.810547,198.072266 627.033203,199.556641 631.076172,199.556641 Z M632.248047,195.015625 C629.357422,195.015625 627.09668,193.970703 625.46582,191.880859 C623.834961,189.791016 623.019531,186.900391 623.019531,183.208984 C623.019531,179.537109 623.839844,176.651367 625.480469,174.551758 C627.121094,172.452148 629.376953,171.402344 632.248047,171.402344 C635.099609,171.402344 637.360352,172.466797 639.030273,174.595703 C640.700195,176.724609 641.535156,179.595703 641.535156,183.208984 C641.535156,186.861328 640.705078,189.742188 639.044922,191.851562 C637.384766,193.960938 635.119141,195.015625 632.248047,195.015625 Z M669.220703,199.556641 C673.712891,199.556641 677.257812,198.101562 679.855469,195.191406 C682.472656,192.261719 683.78125,188.267578 683.78125,183.208984 C683.78125,178.130859 682.482422,174.136719 679.884766,171.226562 C677.287109,168.316406 673.732422,166.861328 669.220703,166.861328 C664.708984,166.861328 661.154297,168.316406 658.556641,171.226562 C655.958984,174.136719 654.660156,178.130859 654.660156,183.208984 C654.660156,188.267578 655.963867,192.256836 658.571289,195.176758 C661.178711,198.09668 664.728516,199.556641 669.220703,199.556641 Z M669.220703,195.015625 C666.232422,195.015625 663.927734,193.990234 662.306641,191.939453 C660.685547,189.869141 659.875,186.958984 659.875,183.208984 C659.875,179.458984 660.685547,176.553711 662.306641,174.493164 C663.927734,172.432617 666.232422,171.402344 669.220703,171.402344 C672.208984,171.402344 674.513672,172.432617 676.134766,174.493164 C677.755859,176.553711 678.566406,179.458984 678.566406,183.208984 C678.566406,186.958984 677.755859,189.864258 676.134766,191.924805 C674.513672,193.985352 672.208984,195.015625 669.220703,195.015625 Z M704.611328,199.556641 C708.302734,199.556641 711.310547,198.624023 713.634766,196.758789 C715.958984,194.893555 717.355469,192.466797 717.824219,189.478516 L717.824219,189.478516 L712.726562,189.478516 C712.257812,191.255859 711.31543,192.623047 709.899414,193.580078 C708.483398,194.537109 706.710938,195.015625 704.582031,195.015625 C701.769531,195.015625 699.523438,193.936523 697.84375,191.77832 C696.164062,189.620117 695.324219,186.724609 695.324219,183.091797 C695.324219,179.517578 696.15918,176.675781 697.829102,174.566406 C699.499023,172.457031 701.75,171.402344 704.582031,171.402344 C706.75,171.402344 708.541992,171.93457 709.958008,172.999023 C711.374023,174.063477 712.296875,175.425781 712.726562,177.085938 L712.726562,177.085938 L717.824219,177.085938 C717.355469,174.136719 715.954102,171.695312 713.620117,169.761719 C711.286133,167.828125 708.273438,166.861328 704.582031,166.861328 C700.167969,166.861328 696.652344,168.335938 694.035156,171.285156 C691.417969,174.234375 690.109375,178.169922 690.109375,183.091797 C690.109375,188.111328 691.417969,192.110352 694.035156,195.088867 C696.652344,198.067383 700.177734,199.556641 704.611328,199.556641 Z M736.105469,199.556641 C739.738281,199.556641 742.755859,198.663086 745.158203,196.875977 C747.560547,195.088867 748.761719,192.798828 748.761719,190.005859 C748.761719,187.759766 748.043945,185.953125 746.608398,184.585938 C745.172852,183.21875 742.951172,182.173828 739.943359,181.451172 L739.943359,181.451172 L735.080078,180.279297 C733.205078,179.830078 731.823242,179.249023 730.93457,178.536133 C730.045898,177.823242 729.601562,176.929688 729.601562,175.855469 C729.601562,174.46875 730.241211,173.335938 731.520508,172.457031 C732.799805,171.578125 734.386719,171.138672 736.28125,171.138672 C738.15625,171.138672 739.694336,171.514648 740.895508,172.266602 C742.09668,173.018555 742.873047,174.039062 743.224609,175.328125 L743.224609,175.328125 L748.205078,175.328125 C747.873047,172.730469 746.632812,170.669922 744.484375,169.146484 C742.335938,167.623047 739.611328,166.861328 736.310547,166.861328 C732.951172,166.861328 730.148438,167.740234 727.902344,169.498047 C725.65625,171.255859 724.533203,173.443359 724.533203,176.060547 C724.533203,178.326172 725.22168,180.137695 726.598633,181.495117 C727.975586,182.852539 730.158203,183.892578 733.146484,184.615234 L733.146484,184.615234 L738.566406,185.933594 C741.90625,186.753906 743.576172,188.238281 743.576172,190.386719 C743.576172,191.832031 742.892578,193.013672 741.525391,193.931641 C740.158203,194.849609 738.410156,195.308594 736.28125,195.308594 C734.308594,195.308594 732.6875,194.922852 731.417969,194.151367 C730.148438,193.379883 729.298828,192.310547 728.869141,190.943359 L728.869141,190.943359 L723.683594,190.943359 C723.957031,193.560547 725.216797,195.650391 727.462891,197.212891 C729.708984,198.775391 732.589844,199.556641 736.105469,199.556641 Z M784.796875,199 L791.828125,174.566406 L792.296875,174.566406 L799.357422,199 L804.484375,199 L813.332031,167.417969 L808.263672,167.417969 L802.052734,192.671875 L801.583984,192.671875 L794.523438,167.417969 L789.689453,167.417969 L782.628906,192.671875 L782.160156,192.671875 L775.949219,167.417969 L770.851562,167.417969 L779.699219,199 L784.796875,199 Z M822.707031,161.001953 C823.683594,161.001953 824.513672,160.660156 825.197266,159.976562 C825.880859,159.273438 826.222656,158.443359 826.222656,157.486328 C826.222656,156.529297 825.880859,155.704102 825.197266,155.010742 C824.513672,154.317383 823.683594,153.970703 822.707031,153.970703 C821.730469,153.970703 820.900391,154.317383 820.216797,155.010742 C819.533203,155.704102 819.191406,156.529297 819.191406,157.486328 C819.191406,158.443359 819.533203,159.268555 820.216797,159.961914 C820.900391,160.655273 821.730469,161.001953 822.707031,161.001953 Z M825.226562,199 L825.226562,167.417969 L820.1875,167.417969 L820.1875,199 L825.226562,199 Z M846.056641,199.234375 C846.916016,199.234375 847.902344,199.136719 849.015625,198.941406 L849.015625,198.941406 L849.015625,194.693359 C848.175781,194.771484 847.394531,194.810547 846.671875,194.810547 C845.03125,194.810547 843.839844,194.390625 843.097656,193.550781 C842.355469,192.710938 841.984375,191.363281 841.984375,189.507812 L841.984375,189.507812 L841.984375,171.636719 L849.015625,171.636719 L849.015625,167.417969 L841.984375,167.417969 L841.984375,159.244141 L836.945312,159.244141 L836.945312,167.417969 L831.847656,167.417969 L831.847656,171.636719 L836.945312,171.636719 L836.945312,190.796875 C836.945312,193.804688 837.648438,195.962891 839.054688,197.271484 C840.460938,198.580078 842.794922,199.234375 846.056641,199.234375 Z M861.964844,199 L861.964844,180.308594 C861.964844,177.59375 862.731445,175.430664 864.264648,173.819336 C865.797852,172.208008 867.951172,171.402344 870.724609,171.402344 C875.587891,171.402344 878.019531,174.195312 878.019531,179.78125 L878.019531,179.78125 L878.019531,199 L883.058594,199 L883.058594,178.550781 C883.058594,174.878906 882.082031,172.012695 880.128906,169.952148 C878.175781,167.891602 875.519531,166.861328 872.160156,166.861328 C869.777344,166.861328 867.760742,167.339844 866.110352,168.296875 C864.459961,169.253906 863.234375,170.621094 862.433594,172.398438 L862.433594,172.398438 L861.964844,172.398438 L861.964844,154.878906 L856.925781,154.878906 L856.925781,199 L861.964844,199 Z M45.6660156,270.556641 C49.3574219,270.556641 52.3652344,269.624023 54.6894531,267.758789 C57.0136719,265.893555 58.4101562,263.466797 58.8789062,260.478516 L58.8789062,260.478516 L53.78125,260.478516 C53.3125,262.255859 52.3701172,263.623047 50.9541016,264.580078 C49.5380859,265.537109 47.765625,266.015625 45.6367188,266.015625 C42.8242188,266.015625 40.578125,264.936523 38.8984375,262.77832 C37.21875,260.620117 36.3789062,257.724609 36.3789062,254.091797 C36.3789062,250.517578 37.2138672,247.675781 38.8837891,245.566406 C40.5537109,243.457031 42.8046875,242.402344 45.6367188,242.402344 C47.8046875,242.402344 49.5966797,242.93457 51.0126953,243.999023 C52.4287109,245.063477 53.3515625,246.425781 53.78125,248.085938 L53.78125,248.085938 L58.8789062,248.085938 C58.4101562,245.136719 57.0087891,242.695312 54.6748047,240.761719 C52.3408203,238.828125 49.328125,237.861328 45.6367188,237.861328 C41.2226562,237.861328 37.7070312,239.335938 35.0898438,242.285156 C32.4726562,245.234375 31.1640625,249.169922 31.1640625,254.091797 C31.1640625,259.111328 32.4726562,263.110352 35.0898438,266.088867 C37.7070312,269.067383 41.2324219,270.556641 45.6660156,270.556641 Z M79.2988281,270.556641 C83.7910156,270.556641 87.3359375,269.101562 89.9335938,266.191406 C92.5507812,263.261719 93.859375,259.267578 93.859375,254.208984 C93.859375,249.130859 92.5605469,245.136719 89.9628906,242.226562 C87.3652344,239.316406 83.8105469,237.861328 79.2988281,237.861328 C74.7871094,237.861328 71.2324219,239.316406 68.6347656,242.226562 C66.0371094,245.136719 64.7382812,249.130859 64.7382812,254.208984 C64.7382812,259.267578 66.0419922,263.256836 68.6494141,266.176758 C71.2568359,269.09668 74.8066406,270.556641 79.2988281,270.556641 Z M79.2988281,266.015625 C76.3105469,266.015625 74.0058594,264.990234 72.3847656,262.939453 C70.7636719,260.869141 69.953125,257.958984 69.953125,254.208984 C69.953125,250.458984 70.7636719,247.553711 72.3847656,245.493164 C74.0058594,243.432617 76.3105469,242.402344 79.2988281,242.402344 C82.2871094,242.402344 84.5917969,243.432617 86.2128906,245.493164 C87.8339844,247.553711 88.6445312,250.458984 88.6445312,254.208984 C88.6445312,257.958984 87.8339844,260.864258 86.2128906,262.924805 C84.5917969,264.985352 82.2871094,266.015625 79.2988281,266.015625 Z M106.808594,270 L106.808594,251.308594 C106.808594,248.554688 107.555664,246.381836 109.049805,244.790039 C110.543945,243.198242 112.560547,242.402344 115.099609,242.402344 C117.619141,242.402344 119.489258,243.09082 120.709961,244.467773 C121.930664,245.844727 122.541016,247.949219 122.541016,250.78125 L122.541016,250.78125 L122.541016,270 L127.580078,270 L127.580078,249.550781 C127.580078,245.800781 126.623047,242.915039 124.708984,240.893555 C122.794922,238.87207 120.070312,237.861328 116.535156,237.861328 C111.886719,237.861328 108.722656,239.707031 107.042969,243.398438 L107.042969,243.398438 L106.574219,243.398438 L106.574219,238.417969 L101.769531,238.417969 L101.769531,270 L106.808594,270 Z M148,270.234375 C148.859375,270.234375 149.845703,270.136719 150.958984,269.941406 L150.958984,269.941406 L150.958984,265.693359 C150.119141,265.771484 149.337891,265.810547 148.615234,265.810547 C146.974609,265.810547 145.783203,265.390625 145.041016,264.550781 C144.298828,263.710938 143.927734,262.363281 143.927734,260.507812 L143.927734,260.507812 L143.927734,242.636719 L150.958984,242.636719 L150.958984,238.417969 L143.927734,238.417969 L143.927734,230.244141 L138.888672,230.244141 L138.888672,238.417969 L133.791016,238.417969 L133.791016,242.636719 L138.888672,242.636719 L138.888672,261.796875 C138.888672,264.804688 139.591797,266.962891 140.998047,268.271484 C142.404297,269.580078 144.738281,270.234375 148,270.234375 Z M171.232422,270.556641 C174.669922,270.556641 177.555664,269.785156 179.889648,268.242188 C182.223633,266.699219 183.771484,264.560547 184.533203,261.826172 L184.533203,261.826172 L179.494141,261.826172 C178.146484,264.677734 175.431641,266.103516 171.349609,266.103516 C168.673828,266.103516 166.520508,265.185547 164.889648,263.349609 C163.258789,261.513672 162.375,259.033203 162.238281,255.908203 L162.238281,255.908203 L162.238281,255.673828 L184.943359,255.673828 L184.943359,253.740234 C184.943359,248.818359 183.722656,244.941406 181.28125,242.109375 C178.839844,239.277344 175.490234,237.861328 171.232422,237.861328 C166.896484,237.861328 163.439453,239.345703 160.861328,242.314453 C158.283203,245.283203 156.994141,249.257812 156.994141,254.238281 C156.994141,259.238281 158.273438,263.208008 160.832031,266.147461 C163.390625,269.086914 166.857422,270.556641 171.232422,270.556641 Z M179.640625,251.601562 L162.238281,251.601562 C162.433594,248.808594 163.341797,246.5625 164.962891,244.863281 C166.583984,243.164062 168.654297,242.314453 171.173828,242.314453 C173.673828,242.314453 175.695312,243.164062 177.238281,244.863281 C178.78125,246.5625 179.582031,248.808594 179.640625,251.601562 L179.640625,251.601562 Z M197.892578,270 L197.892578,251.308594 C197.892578,248.554688 198.639648,246.381836 200.133789,244.790039 C201.62793,243.198242 203.644531,242.402344 206.183594,242.402344 C208.703125,242.402344 210.573242,243.09082 211.793945,244.467773 C213.014648,245.844727 213.625,247.949219 213.625,250.78125 L213.625,250.78125 L213.625,270 L218.664062,270 L218.664062,249.550781 C218.664062,245.800781 217.707031,242.915039 215.792969,240.893555 C213.878906,238.87207 211.154297,237.861328 207.619141,237.861328 C202.970703,237.861328 199.806641,239.707031 198.126953,243.398438 L198.126953,243.398438 L197.658203,243.398438 L197.658203,238.417969 L192.853516,238.417969 L192.853516,270 L197.892578,270 Z M239.083984,270.234375 C239.943359,270.234375 240.929688,270.136719 242.042969,269.941406 L242.042969,269.941406 L242.042969,265.693359 C241.203125,265.771484 240.421875,265.810547 239.699219,265.810547 C238.058594,265.810547 236.867188,265.390625 236.125,264.550781 C235.382812,263.710938 235.011719,262.363281 235.011719,260.507812 L235.011719,260.507812 L235.011719,242.636719 L242.042969,242.636719 L242.042969,238.417969 L235.011719,238.417969 L235.011719,230.244141 L229.972656,230.244141 L229.972656,238.417969 L224.875,238.417969 L224.875,242.636719 L229.972656,242.636719 L229.972656,261.796875 C229.972656,264.804688 230.675781,266.962891 232.082031,268.271484 C233.488281,269.580078 235.822266,270.234375 239.083984,270.234375 Z M273.742188,270 L273.742188,242.636719 L280.978516,242.636719 L280.978516,238.417969 L273.742188,238.417969 L273.742188,235.488281 C273.742188,232.109375 275.314453,230.419922 278.458984,230.419922 C279.533203,230.419922 280.470703,230.507812 281.271484,230.683594 L281.271484,230.683594 L281.271484,226.464844 C280.099609,226.269531 279.064453,226.171875 278.166016,226.171875 C275.041016,226.171875 272.682617,226.90918 271.09082,228.383789 C269.499023,229.858398 268.703125,232.177734 268.703125,235.341797 L268.703125,235.341797 L268.703125,238.417969 L263.458984,238.417969 L263.458984,242.636719 L268.703125,242.636719 L268.703125,270 L273.742188,270 Z M293.341797,270 L293.341797,250.429688 C293.341797,248.203125 294.123047,246.367188 295.685547,244.921875 C297.248047,243.476562 299.230469,242.753906 301.632812,242.753906 C303.097656,242.753906 304.171875,242.851562 304.855469,243.046875 L304.855469,243.046875 L304.855469,238.007812 C304.132812,237.910156 303.292969,237.861328 302.335938,237.861328 C300.246094,237.861328 298.380859,238.349609 296.740234,239.326172 C295.099609,240.302734 294.044922,241.5625 293.576172,243.105469 L293.576172,243.105469 L293.107422,243.105469 L293.107422,238.417969 L288.302734,238.417969 L288.302734,270 L293.341797,270 Z M324.132812,270.556641 C328.625,270.556641 332.169922,269.101562 334.767578,266.191406 C337.384766,263.261719 338.693359,259.267578 338.693359,254.208984 C338.693359,249.130859 337.394531,245.136719 334.796875,242.226562 C332.199219,239.316406 328.644531,237.861328 324.132812,237.861328 C319.621094,237.861328 316.066406,239.316406 313.46875,242.226562 C310.871094,245.136719 309.572266,249.130859 309.572266,254.208984 C309.572266,259.267578 310.875977,263.256836 313.483398,266.176758 C316.09082,269.09668 319.640625,270.556641 324.132812,270.556641 Z M324.132812,266.015625 C321.144531,266.015625 318.839844,264.990234 317.21875,262.939453 C315.597656,260.869141 314.787109,257.958984 314.787109,254.208984 C314.787109,250.458984 315.597656,247.553711 317.21875,245.493164 C318.839844,243.432617 321.144531,242.402344 324.132812,242.402344 C327.121094,242.402344 329.425781,243.432617 331.046875,245.493164 C332.667969,247.553711 333.478516,250.458984 333.478516,254.208984 C333.478516,257.958984 332.667969,260.864258 331.046875,262.924805 C329.425781,264.985352 327.121094,266.015625 324.132812,266.015625 Z M351.642578,270 L351.642578,250.429688 C351.642578,248.203125 352.350586,246.308594 353.766602,244.746094 C355.182617,243.183594 356.916016,242.402344 358.966797,242.402344 C360.958984,242.402344 362.555664,242.958984 363.756836,244.072266 C364.958008,245.185547 365.558594,246.679688 365.558594,248.554688 L365.558594,248.554688 L365.558594,270 L370.597656,270 L370.597656,249.697266 C370.597656,247.646484 371.28125,245.917969 372.648438,244.511719 C374.015625,243.105469 375.773438,242.402344 377.921875,242.402344 C382.355469,242.402344 384.572266,244.716797 384.572266,249.345703 L384.572266,249.345703 L384.572266,270 L389.611328,270 L389.611328,248.173828 C389.611328,244.873047 388.742188,242.329102 387.003906,240.541992 C385.265625,238.754883 382.785156,237.861328 379.5625,237.861328 C377.414062,237.861328 375.480469,238.359375 373.761719,239.355469 C372.042969,240.351562 370.753906,241.699219 369.894531,243.398438 L369.894531,243.398438 L369.425781,243.398438 C368.664062,241.699219 367.536133,240.351562 366.041992,239.355469 C364.547852,238.359375 362.765625,237.861328 360.695312,237.861328 C358.585938,237.861328 356.769531,238.344727 355.246094,239.311523 C353.722656,240.27832 352.599609,241.640625 351.876953,243.398438 L351.876953,243.398438 L351.408203,243.398438 L351.408203,238.417969 L346.603516,238.417969 L346.603516,270 L351.642578,270 Z M421.603516,270 L421.603516,237.216797 L422.072266,237.216797 L445.011719,270 L450.138672,270 L450.138672,227.724609 L444.923828,227.724609 L444.923828,260.625 L444.455078,260.625 L421.515625,227.724609 L416.388672,227.724609 L416.388672,270 L421.603516,270 Z M473.253906,270.556641 C477.746094,270.556641 481.291016,269.101562 483.888672,266.191406 C486.505859,263.261719 487.814453,259.267578 487.814453,254.208984 C487.814453,249.130859 486.515625,245.136719 483.917969,242.226562 C481.320312,239.316406 477.765625,237.861328 473.253906,237.861328 C468.742188,237.861328 465.1875,239.316406 462.589844,242.226562 C459.992188,245.136719 458.693359,249.130859 458.693359,254.208984 C458.693359,259.267578 459.99707,263.256836 462.604492,266.176758 C465.211914,269.09668 468.761719,270.556641 473.253906,270.556641 Z M473.253906,266.015625 C470.265625,266.015625 467.960938,264.990234 466.339844,262.939453 C464.71875,260.869141 463.908203,257.958984 463.908203,254.208984 C463.908203,250.458984 464.71875,247.553711 466.339844,245.493164 C467.960938,243.432617 470.265625,242.402344 473.253906,242.402344 C476.242188,242.402344 478.546875,243.432617 480.167969,245.493164 C481.789062,247.553711 482.599609,250.458984 482.599609,254.208984 C482.599609,257.958984 481.789062,260.864258 480.167969,262.924805 C478.546875,264.985352 476.242188,266.015625 473.253906,266.015625 Z M506.945312,270.234375 C507.804688,270.234375 508.791016,270.136719 509.904297,269.941406 L509.904297,269.941406 L509.904297,265.693359 C509.064453,265.771484 508.283203,265.810547 507.560547,265.810547 C505.919922,265.810547 504.728516,265.390625 503.986328,264.550781 C503.244141,263.710938 502.873047,262.363281 502.873047,260.507812 L502.873047,260.507812 L502.873047,242.636719 L509.904297,242.636719 L509.904297,238.417969 L502.873047,238.417969 L502.873047,230.244141 L497.833984,230.244141 L497.833984,238.417969 L492.736328,238.417969 L492.736328,242.636719 L497.833984,242.636719 L497.833984,261.796875 C497.833984,264.804688 498.537109,266.962891 499.943359,268.271484 C501.349609,269.580078 503.683594,270.234375 506.945312,270.234375 Z M520.158203,232.001953 C521.134766,232.001953 521.964844,231.660156 522.648438,230.976562 C523.332031,230.273438 523.673828,229.443359 523.673828,228.486328 C523.673828,227.529297 523.332031,226.704102 522.648438,226.010742 C521.964844,225.317383 521.134766,224.970703 520.158203,224.970703 C519.181641,224.970703 518.351562,225.317383 517.667969,226.010742 C516.984375,226.704102 516.642578,227.529297 516.642578,228.486328 C516.642578,229.443359 516.984375,230.268555 517.667969,230.961914 C518.351562,231.655273 519.181641,232.001953 520.158203,232.001953 Z M522.677734,270 L522.677734,238.417969 L517.638672,238.417969 L517.638672,270 L522.677734,270 Z M545.265625,270.556641 C549.757812,270.556641 553.302734,269.101562 555.900391,266.191406 C558.517578,263.261719 559.826172,259.267578 559.826172,254.208984 C559.826172,249.130859 558.527344,245.136719 555.929688,242.226562 C553.332031,239.316406 549.777344,237.861328 545.265625,237.861328 C540.753906,237.861328 537.199219,239.316406 534.601562,242.226562 C532.003906,245.136719 530.705078,249.130859 530.705078,254.208984 C530.705078,259.267578 532.008789,263.256836 534.616211,266.176758 C537.223633,269.09668 540.773438,270.556641 545.265625,270.556641 Z M545.265625,266.015625 C542.277344,266.015625 539.972656,264.990234 538.351562,262.939453 C536.730469,260.869141 535.919922,257.958984 535.919922,254.208984 C535.919922,250.458984 536.730469,247.553711 538.351562,245.493164 C539.972656,243.432617 542.277344,242.402344 545.265625,242.402344 C548.253906,242.402344 550.558594,243.432617 552.179688,245.493164 C553.800781,247.553711 554.611328,250.458984 554.611328,254.208984 C554.611328,257.958984 553.800781,260.864258 552.179688,262.924805 C550.558594,264.985352 548.253906,266.015625 545.265625,266.015625 Z M572.775391,270 L572.775391,251.308594 C572.775391,248.554688 573.522461,246.381836 575.016602,244.790039 C576.510742,243.198242 578.527344,242.402344 581.066406,242.402344 C583.585938,242.402344 585.456055,243.09082 586.676758,244.467773 C587.897461,245.844727 588.507812,247.949219 588.507812,250.78125 L588.507812,250.78125 L588.507812,270 L593.546875,270 L593.546875,249.550781 C593.546875,245.800781 592.589844,242.915039 590.675781,240.893555 C588.761719,238.87207 586.037109,237.861328 582.501953,237.861328 C577.853516,237.861328 574.689453,239.707031 573.009766,243.398438 L573.009766,243.398438 L572.541016,243.398438 L572.541016,238.417969 L567.736328,238.417969 L567.736328,270 L572.775391,270 Z" id="Buildyourproduct'sdocswithcontentfromNotion" fill="#FFFFFF" fill-rule="nonzero"></path>
        <path d="M37.0136719,125 L37.0136719,106.982422 L37.2949219,106.982422 L50.3203125,125 L53.8710938,125 L53.8710938,99.6347656 L50.0390625,99.6347656 L50.0390625,117.652344 L49.7578125,117.652344 L36.7324219,99.6347656 L33.1816406,99.6347656 L33.1816406,125 L37.0136719,125 Z M67.8808594,125.369141 C70.6816406,125.369141 72.8847656,124.484375 74.4902344,122.714844 C76.0957031,120.945312 76.8984375,118.513672 76.8984375,115.419922 C76.8984375,112.337891 76.0927734,109.912109 74.4814453,108.142578 C72.8701172,106.373047 70.6699219,105.488281 67.8808594,105.488281 C65.0800781,105.488281 62.8740234,106.373047 61.2626953,108.142578 C59.6513672,109.912109 58.8457031,112.337891 58.8457031,115.419922 C58.8457031,118.513672 59.6484375,120.945312 61.2539062,122.714844 C62.859375,124.484375 65.0683594,125.369141 67.8808594,125.369141 Z M67.8808594,122.011719 C66.2402344,122.011719 64.9746094,121.4375 64.0839844,120.289062 C63.1933594,119.140625 62.7480469,117.517578 62.7480469,115.419922 C62.7480469,113.333984 63.1933594,111.716797 64.0839844,110.568359 C64.9746094,109.419922 66.2402344,108.845703 67.8808594,108.845703 C69.5097656,108.845703 70.7724609,109.422852 71.6689453,110.577148 C72.5654297,111.731445 73.0136719,113.345703 73.0136719,115.419922 C73.0136719,117.505859 72.5654297,119.125977 71.6689453,120.280273 C70.7724609,121.43457 69.5097656,122.011719 67.8808594,122.011719 Z M88.640625,125.105469 C89.2617188,125.105469 89.9472656,125.041016 90.6972656,124.912109 L90.6972656,124.912109 L90.6972656,121.765625 C90.1113281,121.824219 89.6308594,121.853516 89.2558594,121.853516 C88.3183594,121.853516 87.6328125,121.62207 87.1992188,121.15918 C86.765625,120.696289 86.5488281,119.966797 86.5488281,118.970703 L86.5488281,118.970703 L86.5488281,109.126953 L90.6972656,109.126953 L90.6972656,105.945312 L86.5488281,105.945312 L86.5488281,101.09375 L82.7695312,101.09375 L82.7695312,105.945312 L79.7285156,105.945312 L79.7285156,109.126953 L82.7695312,109.126953 L82.7695312,119.9375 C82.7695312,121.789062 83.2236328,123.113281 84.1318359,123.910156 C85.0400391,124.707031 86.5429688,125.105469 88.640625,125.105469 Z M100.435547,125.316406 C101.689453,125.316406 102.817383,125.055664 103.819336,124.53418 C104.821289,124.012695 105.609375,123.271484 106.183594,122.310547 L106.183594,122.310547 L106.482422,122.310547 L106.482422,125 L110.121094,125 L110.121094,111.921875 C110.121094,109.894531 109.467773,108.31543 108.161133,107.18457 C106.854492,106.053711 105.005859,105.488281 102.615234,105.488281 C100.435547,105.488281 98.6337891,105.977539 97.2099609,106.956055 C95.7861328,107.93457 94.9804688,109.244141 94.7929688,110.884766 L94.7929688,110.884766 L98.4492188,110.884766 C98.6601562,110.205078 99.1142578,109.680664 99.8115234,109.311523 C100.508789,108.942383 101.384766,108.757812 102.439453,108.757812 C103.716797,108.757812 104.689453,109.030273 105.357422,109.575195 C106.025391,110.120117 106.359375,110.902344 106.359375,111.921875 L106.359375,111.921875 L106.359375,113.574219 L101.173828,113.873047 C98.8886719,114.013672 97.1308594,114.573242 95.9003906,115.551758 C94.6699219,116.530273 94.0546875,117.875 94.0546875,119.585938 C94.0546875,121.308594 94.6494141,122.694336 95.8388672,123.743164 C97.0283203,124.791992 98.5605469,125.316406 100.435547,125.316406 Z M101.402344,122.134766 C100.347656,122.134766 99.4921875,121.891602 98.8359375,121.405273 C98.1796875,120.918945 97.8515625,120.253906 97.8515625,119.410156 C97.8515625,118.566406 98.1621094,117.916016 98.7832031,117.458984 C99.4042969,117.001953 100.371094,116.732422 101.683594,116.650391 L101.683594,116.650391 L106.359375,116.351562 L106.359375,117.951172 C106.359375,119.146484 105.887695,120.142578 104.944336,120.939453 C104.000977,121.736328 102.820312,122.134766 101.402344,122.134766 Z M119.455078,125 L119.455078,118.144531 L121.125,116.5625 L127.699219,125 L132.339844,125 L123.9375,114.066406 L131.8125,105.857422 L127.347656,105.857422 L119.753906,113.837891 L119.455078,113.837891 L119.455078,98.3867188 L115.675781,98.3867188 L115.675781,125 L119.455078,125 Z M142.21875,125.369141 C145.101562,125.369141 147.029297,124.232422 148.001953,121.958984 L148.001953,121.958984 L148.300781,121.958984 L148.300781,125 L151.939453,125 L151.939453,105.857422 L148.160156,105.857422 L148.160156,117.054688 C148.160156,118.566406 147.75,119.74707 146.929688,120.59668 C146.109375,121.446289 144.943359,121.871094 143.431641,121.871094 C142.048828,121.871094 141.032227,121.499023 140.381836,120.754883 C139.731445,120.010742 139.40625,118.859375 139.40625,117.300781 L139.40625,117.300781 L139.40625,105.857422 L135.626953,105.857422 L135.626953,118.285156 C135.626953,120.546875 136.198242,122.292969 137.34082,123.523438 C138.483398,124.753906 140.109375,125.369141 142.21875,125.369141 Z" id="Notaku" fill="#FFFFFF" fill-rule="nonzero" opacity="0.782014393"></path>
    </g>
</svg>