<?xml version="1.0" encoding="UTF-8"?>
<svg width="358px" height="103px" viewBox="0 0 358 103" version="1.1" xmlns="http://www.w3.org/2000/svg" xmlns:xlink="http://www.w3.org/1999/xlink">
	<title>
		dokz_logo
	</title>
	<desc>
		Created with Sketch.
	</desc>
	<g id="Page-1" stroke="none" stroke-width="1" fill="none" fill-rule="evenodd">
		<g id="t" transform="translate(-36.000000, -212.000000)">
			<g id="dokz_logo" transform="translate(40.000000, 198.000000)">
				<g id="file-text" transform="translate(0.000000, 18.000000)" stroke="#2D3748" stroke-linecap="round" stroke-linejoin="round" stroke-width="8">
					<path d="M47.5,0 L9.5,0 C4.25329488,0 0,4.25329488 0,9.5 L0,85.5 C0,90.7467051 4.25329488,95 9.5,95 L66.5,95 C71.7467051,95 76,90.7467051 76,85.5 L76,28.5 L47.5,0 Z" id="Path">
					</path>
					<polyline id="Path" points="47.7714286 0 47.7714286 28.3908046 76 28.3908046">
					</polyline>
					<line x1="57.5428571" y1="52.9597701" x2="18.4571429" y2="52.9597701" id="Path">
					</line>
					<line x1="57.5428571" y1="71.5229885" x2="18.4571429" y2="71.5229885" id="Path">
					</line>
					<polyline id="Path" points="28.2285714 33.3045977 23.3428571 33.3045977 18.4571429 33.3045977">
					</polyline>
				</g>
				<path d="M126.460938,115.054688 C130.835938,115.054688 134.791016,114.068359 138.326172,112.095703 C141.861328,110.123047 144.585938,107.398438 146.5,103.921875 L146.5,103.921875 L147.496094,103.921875 L147.496094,114 L159.566406,114 L159.566406,25.2890625 L146.96875,25.2890625 L146.96875,60.328125 L146.03125,60.328125 C144.3125,56.8125 141.714844,54.0683594 138.238281,52.0957031 C134.761719,50.1230469 130.835938,49.1367188 126.460938,49.1367188 C118.375,49.1367188 111.939453,52.1054688 107.154297,58.0429688 C102.369141,63.9804688 99.9765625,71.9882812 99.9765625,82.0664062 C99.9765625,92.1835938 102.359375,100.210938 107.125,106.148438 C111.890625,112.085938 118.335938,115.054688 126.460938,115.054688 Z M130.035156,103.746094 C124.722656,103.746094 120.552734,101.822266 117.525391,97.9746094 C114.498047,94.1269531 112.984375,88.8242188 112.984375,82.0664062 C112.984375,75.3476562 114.498047,70.0644531 117.525391,66.2167969 C120.552734,62.3691406 124.722656,60.4453125 130.035156,60.4453125 C135.308594,60.4453125 139.488281,62.3984375 142.574219,66.3046875 C145.660156,70.2109375 147.203125,75.484375 147.203125,82.125 C147.203125,88.8046875 145.669922,94.078125 142.603516,97.9453125 C139.537109,101.8125 135.347656,103.746094 130.035156,103.746094 Z M200.779027,115.230469 C210.114964,115.230469 217.458714,112.28125 222.810277,106.382812 C228.161839,100.484375 230.837621,92.3789062 230.837621,82.0664062 C230.837621,71.7929688 228.152074,63.7070312 222.78098,57.8085938 C217.409886,51.9101562 210.075902,48.9609375 200.779027,48.9609375 C191.443089,48.9609375 184.089574,51.9101562 178.71848,57.8085938 C173.347386,63.7070312 170.661839,71.7929688 170.661839,82.0664062 C170.661839,92.3789062 173.337621,100.484375 178.689183,106.382812 C184.040746,112.28125 191.404027,115.230469 200.779027,115.230469 Z M200.779027,104.039062 C195.310277,104.039062 191.091527,102.125 188.122777,98.296875 C185.154027,94.46875 183.669652,89.0585938 183.669652,82.0664062 C183.669652,75.1132812 185.154027,69.7226562 188.122777,65.8945312 C191.091527,62.0664062 195.310277,60.1523438 200.779027,60.1523438 C206.208714,60.1523438 210.417699,62.0761719 213.40598,65.9238281 C216.394261,69.7714844 217.888402,75.1523438 217.888402,82.0664062 C217.888402,89.0195312 216.394261,94.4199219 213.40598,98.2675781 C210.417699,102.115234 206.208714,104.039062 200.779027,104.039062 Z M254.53071,114 L254.53071,91.1484375 L260.097116,85.875 L282.011179,114 L297.479929,114 L269.472116,77.5546875 L295.722116,50.1914062 L280.839304,50.1914062 L255.526804,76.7929688 L254.53071,76.7929688 L254.53071,25.2890625 L241.933054,25.2890625 L241.933054,114 L254.53071,114 Z M353.458174,114 L353.458174,103.335938 L318.770674,103.335938 L318.770674,102.339844 L353.106611,59.390625 L353.106611,50.1914062 L303.184736,50.1914062 L303.184736,60.8554688 L338.048018,60.8554688 L338.048018,61.8515625 L302.950361,105.445312 L302.950361,114 L353.458174,114 Z" id="dokz" fill="#2D3748" fill-rule="nonzero">
				</path>
			</g>
		</g>
	</g>
</svg>
